<?xml version="1.0" encoding="UTF-8"?>
<!-- Generator: visioncortex VTracer 0.6.2 -->
<svg version="1.1" xmlns="http://www.w3.org/2000/svg" width="1280" height="1280">
<path d="M0 0 C0.99 0 1.98 0 3 0 C2.41721415 5.36400857 1.49953341 10.39324882 0.125 15.625 C-3.16689717 28.19641833 -5.55340219 40.60291166 -6.6875 53.5625 C-6.75003967 54.25898651 -6.81257935 54.95547302 -6.87701416 55.67306519 C-9.77856115 88.36186928 -8.89616275 123.58821684 11.5 151.0625 C18.48122604 159.33888562 26.00365224 165.31196708 36.9375 166.9375 C47.28013311 167.57791072 55.00574406 162.74438981 62.8359375 156.546875 C68.81784235 151.18752134 72.27609553 143.99148805 76 137 C76.62068359 135.89785156 76.62068359 135.89785156 77.25390625 134.7734375 C96.36371325 99.55144029 87.69177343 47.94195347 77.17553711 11.53686523 C76.66904861 9.83546818 76.13651731 8.14188112 75.6015625 6.44921875 C75 4 75 4 76 2 C76.99 2 77.98 2 79 2 C80.2890625 3.58984375 80.2890625 3.58984375 81.625 5.9375 C82.13933594 6.83984375 82.65367187 7.7421875 83.18359375 8.671875 C85.3655493 12.66978066 87.5414868 16.67016678 89.6875 20.6875 C90.06793457 21.39962646 90.44836914 22.11175293 90.84033203 22.84545898 C94.76321519 30.28788174 97.75714639 37.93389982 100.5 45.875 C100.94279297 47.14537109 100.94279297 47.14537109 101.39453125 48.44140625 C102.26961453 50.95871629 103.1357031 53.47896886 104 56 C104.28101563 56.80808105 104.56203125 57.61616211 104.8515625 58.44873047 C106.2099599 62.41264617 107.37065319 66.21868875 108 70.375 C108.61627359 74.11407171 109.45035876 77.62882514 110.5625 81.25 C114.26657609 94.53229306 113.25807578 109.31374699 113 123 C112.98743164 123.70141113 112.97486328 124.40282227 112.96191406 125.12548828 C112.78340653 132.36597237 111.90065812 138.52812385 109.03515625 145.20703125 C108.14071754 147.62032816 107.59619179 149.79842325 107.08984375 152.30859375 C106.10558452 156.92652563 104.52666197 160.99636353 102.5 165.25 C102.15396729 165.97944824 101.80793457 166.70889648 101.45141602 167.46044922 C96.65313182 177.17588686 89.60272677 187.27911971 81 194 C80.34 194 79.68 194 79 194 C79 194.66 79 195.32 79 196 C64.91246645 208.7650304 49.04375325 211.9626958 30.65771484 211.21777344 C20.08375779 210.35134227 11.31094246 204.16261908 3 198 C2.01580078 197.27683594 2.01580078 197.27683594 1.01171875 196.5390625 C-12.8167774 185.53984487 -21.0928413 169.25857472 -27 153 C-27.47759766 151.76636719 -27.47759766 151.76636719 -27.96484375 150.5078125 C-36.99148059 125.98769451 -34.21595913 95.53245989 -29.44970703 70.49072266 C-29.05802974 68.32140034 -28.75622622 66.16844007 -28.49609375 63.98046875 C-28 61 -28 61 -26 58 C-25.51027294 56.12753994 -25.51027294 56.12753994 -25.1875 54.0625 C-23.92638185 48.02853468 -21.47639003 42.62225034 -19 37 C-18.42999311 35.67620987 -17.86102915 34.35197032 -17.29296875 33.02734375 C-6.63799794 8.27390264 -6.63799794 8.27390264 0 0 Z " fill="#4861EE" transform="translate(601,400)"/>
<path d="M0 0 C1.32 0.33 2.64 0.66 4 1 C3.62488281 2.01835937 3.24976563 3.03671875 2.86328125 4.0859375 C-7.61355475 32.9110037 -16.30956316 64.09751753 -3.82421875 93.796875 C1.07005675 104.2196138 7.67977768 114.0172594 16 122 C18.46938747 124.46171856 20.93026032 126.92818198 23.359375 129.4296875 C27.11117649 133.26731451 30.78014095 136.96207579 35.125 140.125 C39.95191852 143.72782587 44.12674084 147.9354486 48.375 152.1875 C49.0777002 152.88955566 49.78040039 153.59161133 50.50439453 154.31494141 C59 162.90094751 59 162.90094751 59 166 C59.66 166 60.32 166 61 166 C61.04125 165.34 61.0825 164.68 61.125 164 C63.16938253 156.99068847 69.04305531 151.05317886 75 147 C75.66 147 76.32 147 77 147 C76.43365325 152.38923646 75.44313818 157.27613705 73.9375 162.5 C70.5320768 175.49533817 71.64612504 187.34337536 74.6640625 200.26269531 C76.37880105 207.74219299 76.37880105 207.74219299 75 212 C74.34 212 73.68 212 73 212 C71.5546875 209.9453125 71.5546875 209.9453125 69.875 207.125 C55.70807193 184.26472971 37.04878866 170.77920496 14.125 157.8125 C7.15288774 153.86766236 0.37036206 149.88071466 -6 145 C-6.76054688 144.42894531 -7.52109375 143.85789062 -8.3046875 143.26953125 C-10.56483517 141.54588328 -12.78643226 139.7829282 -15 138 C-15.66773438 137.48050781 -16.33546875 136.96101562 -17.0234375 136.42578125 C-26.93352227 128.33711523 -35.36681275 116.6976887 -38 104 C-38.2262655 99.94053072 -38.18515698 95.87764444 -38.1875 91.8125 C-38.19974609 90.71357422 -38.21199219 89.61464844 -38.22460938 88.48242188 C-38.24227759 78.60588693 -36.2711224 70.29316155 -33.125 61 C-32.88136719 60.2575 -32.63773438 59.515 -32.38671875 58.75 C-29.25756929 49.41119125 -25.01687356 40.99851344 -20.0625 32.5 C-19.0320366 30.71904816 -18.00208388 28.93780074 -16.97265625 27.15625 C-16.47306396 26.29467285 -15.97347168 25.4330957 -15.45874023 24.54541016 C-14.0603122 22.10524101 -12.70157503 19.64688989 -11.3515625 17.1796875 C-9.51230384 13.85245202 -7.53659122 10.71373793 -5.3125 7.625 C-4.73113281 6.81289063 -4.14976562 6.00078125 -3.55078125 5.1640625 C-3.03902344 4.44992187 -2.52726563 3.73578125 -2 3 C-1.34 2.01 -0.68 1.02 0 0 Z " fill="#06060E" transform="translate(548,465)"/>
<path d="M0 0 C1.7265625 0.12890625 1.7265625 0.12890625 4 1 C5.62424332 2.95795149 6.99766975 4.81846161 8.375 6.9375 C8.76929199 7.526521 9.16358398 8.11554199 9.56982422 8.72241211 C12.88451524 13.71475096 15.9933403 18.81693784 19 24 C19.82951172 25.38251953 19.82951172 25.38251953 20.67578125 26.79296875 C27.38502902 38.05438906 32.93871903 49.27661405 37.3125 61.625 C37.65015381 62.56641846 37.98780762 63.50783691 38.33569336 64.4777832 C44.02131476 81.03987033 45.75460927 98.81850185 38.62890625 115.140625 C28.65698781 135.32359662 9.76008478 147.43828665 -9.1875 158.375 C-10.40276367 159.07653198 -10.40276367 159.07653198 -11.64257812 159.79223633 C-15.60507618 162.07114331 -19.57909734 164.32488225 -23.578125 166.5390625 C-32.86904828 171.74379059 -40.5671911 177.36868878 -48 185 C-49.17949219 186.18335938 -49.17949219 186.18335938 -50.3828125 187.390625 C-57.18389765 194.54716756 -63.56774488 203.13548975 -68 212 C-69.32 211.67 -70.64 211.34 -72 211 C-71.42084614 204.27876709 -70.13379681 198.40139043 -68 192 C-66.90236125 179.49108647 -67.43084522 167.90357837 -72.00390625 156.1796875 C-73.03865942 152.87659307 -73.02581023 151.25556541 -72 148 C-64.39652496 152.77427503 -60.08100032 158.02902491 -56 166 C-53.42060485 163.49225471 -51.0235894 161.03032923 -48.8125 158.1875 C-48.214375 157.465625 -47.61625 156.74375 -47 156 C-46.34 156 -45.68 156 -45 156 C-44.7525 155.443125 -44.505 154.88625 -44.25 154.3125 C-42.11437553 150.36159473 -39.23292909 147.09236695 -36 144 C-35.484375 143.443125 -34.96875 142.88625 -34.4375 142.3125 C-33 141 -33 141 -31 141 C-30.67 140.01 -30.34 139.02 -30 138 C-29.01 138 -28.02 138 -27 138 C-25.05028964 136.63760631 -25.05028964 136.63760631 -23.125 134.8125 C-22.46757813 134.22082031 -21.81015625 133.62914062 -21.1328125 133.01953125 C-18.70824711 130.72374314 -16.34835547 128.37368442 -14 126 C-13.23300781 125.23042969 -12.46601562 124.46085938 -11.67578125 123.66796875 C-4.53618332 116.17434117 0.92248001 107.99361979 6 99 C6.34192383 98.4023584 6.68384766 97.8047168 7.03613281 97.18896484 C12.88438119 86.31532289 14.63714852 75.6115223 14.4375 63.375 C14.44458984 62.14265625 14.45167969 60.9103125 14.45898438 59.640625 C14.40571142 51.92014373 13.29160218 45.34157251 11 38 C10.49771713 35.69241059 10.01484103 33.38039658 9.5625 31.0625 C7.63741684 21.89830203 4.81633948 13.27067038 0.734375 4.83984375 C0 3 0 3 0 0 Z " fill="#06060E" transform="translate(730,464)"/>
<path d="M0 0 C0.99 0 1.98 0 3 0 C4.2890625 1.58984375 4.2890625 1.58984375 5.625 3.9375 C6.13933594 4.83984375 6.65367187 5.7421875 7.18359375 6.671875 C9.3655493 10.66978066 11.5414868 14.67016678 13.6875 18.6875 C14.06793457 19.39962646 14.44836914 20.11175293 14.84033203 20.84545898 C18.76321519 28.28788174 21.75714639 35.93389982 24.5 43.875 C24.94279297 45.14537109 24.94279297 45.14537109 25.39453125 46.44140625 C26.26961453 48.95871629 27.1357031 51.47896886 28 54 C28.28101563 54.80808105 28.56203125 55.61616211 28.8515625 56.44873047 C30.2099599 60.41264617 31.37065319 64.21868875 32 68.375 C32.61627359 72.11407171 33.45035876 75.62882514 34.5625 79.25 C38.26657609 92.53229306 37.25807578 107.31374699 37 121 C36.98743164 121.70141113 36.97486328 122.40282227 36.96191406 123.12548828 C36.78340653 130.36597237 35.90065812 136.52812385 33.03515625 143.20703125 C32.14071754 145.62032816 31.59619179 147.79842325 31.08984375 150.30859375 C30.10558452 154.92652563 28.52666197 158.99636353 26.5 163.25 C26.15396729 163.97944824 25.80793457 164.70889648 25.45141602 165.46044922 C20.65313182 175.17588686 13.60272677 185.27911971 5 192 C4.34 192 3.68 192 3 192 C3 192.66 3 193.32 3 194 C-4.40707725 200.71171897 -15.71624938 208 -26 208 C-26.25407499 201.7020513 -26.42886704 195.40542634 -26.54931641 189.10351562 C-26.59953209 186.96141184 -26.66772347 184.81964961 -26.75439453 182.67871094 C-27.45927165 164.81629539 -27.45927165 164.81629539 -23.87451172 160.35449219 C-21.27311789 158.82110947 -18.85542709 157.9451138 -16 157 C-8.46513296 151.23651612 -4.33633485 143.21774171 0 135 C0.4125 134.26652344 0.825 133.53304687 1.25 132.77734375 C20.38146624 97.57843516 11.6865477 45.92386305 1.17553711 9.53686523 C0.66904861 7.83546818 0.13651731 6.14188112 -0.3984375 4.44921875 C-1 2 -1 2 0 0 Z " fill="#42E28E" transform="translate(677,402)"/>
<path d="M0 0 C1.206633 0.00707474 2.41326599 0.01414948 3.65646362 0.0214386 C7.47735896 0.04923171 11.2967416 0.11194656 15.1171875 0.17578125 C17.72133287 0.2008834 20.32550142 0.22369318 22.9296875 0.24414062 C29.28436266 0.29900912 35.63816697 0.38248486 41.9921875 0.48828125 C42.01903429 3.13418139 42.03895107 5.77981221 42.0546875 8.42578125 C42.06306641 9.18052734 42.07144531 9.93527344 42.08007812 10.71289062 C42.08871191 12.63822438 42.04443083 14.56363706 41.9921875 16.48828125 C40.37650596 18.10396279 38.61682688 17.61306606 36.3840332 17.61425781 C35.40243729 17.61806458 34.42084137 17.62187134 33.40950012 17.62579346 C31.80494209 17.62733429 31.80494209 17.62733429 30.16796875 17.62890625 C27.91991178 17.6472389 25.67186463 17.66680963 23.42382812 17.6875 C19.86645048 17.71645169 16.3097003 17.73828056 12.75219727 17.73876953 C9.32771637 17.74210607 5.90469605 17.77667923 2.48046875 17.81640625 C1.42088455 17.80933655 0.36130035 17.80226685 -0.73039246 17.79498291 C-7.14025366 17.87744711 -7.14025366 17.87744711 -12.66333008 20.81152344 C-15.58231271 24.14420339 -16.0078125 26.08889957 -16.0078125 30.48828125 C-14.9737053 34.5307003 -13.2037131 36.84107134 -10.0078125 39.48828125 C-7.26495585 40.07847195 -7.26495585 40.07847195 -4.24609375 39.9921875 C-2.56676758 40.02022461 -2.56676758 40.02022461 -0.85351562 40.04882812 C0.31244141 40.04947266 1.47839844 40.05011719 2.6796875 40.05078125 C13.16419811 40.09203565 23.41849642 40.6727895 31.9921875 47.48828125 C38.2637773 53.95504501 41.4246474 60.46149753 42.4296875 69.36328125 C41.99626542 78.08373353 38.106971 85.06984619 32.48046875 91.515625 C23.98392807 98.25150105 15.2728445 97.98856652 4.9296875 97.73828125 C3.47723827 97.71817815 2.02476206 97.69993413 0.57226562 97.68359375 C-2.95499584 97.63991631 -6.48122749 97.57110232 -10.0078125 97.48828125 C-13.0078125 89.48828125 -13.0078125 89.48828125 -16.0078125 81.48828125 C-6.1078125 81.15828125 3.7921875 80.82828125 13.9921875 80.48828125 C14.3221875 79.82828125 14.6521875 79.16828125 14.9921875 78.48828125 C16.3121875 78.81828125 17.6321875 79.14828125 18.9921875 79.48828125 C22.25447267 75.91029107 23.89206779 73.39414722 23.9921875 68.48828125 C22.42246482 64.2748151 20.83123429 61.8106987 16.9921875 59.48828125 C14.35731967 59.03528488 14.35731967 59.03528488 11.484375 59.08203125 C10.41445313 59.06011719 9.34453125 59.03820312 8.2421875 59.015625 C7.1284375 59.00660156 6.0146875 58.99757813 4.8671875 58.98828125 C-8.74868824 58.87562034 -18.44238675 57.053707 -28.2578125 47.23828125 C-33.0472982 39.71194657 -35.24659505 32.41517815 -34.0078125 23.48828125 C-31.99425421 15.44596265 -27.8011111 8.75416901 -20.89920044 4.05158997 C-13.8619367 0.22070908 -7.9142804 -0.17737651 0 0 Z " fill="#48BEA9" transform="translate(745.0078125,755.51171875)"/>
<path d="M0 0 C1.19753906 -0.01160156 2.39507813 -0.02320313 3.62890625 -0.03515625 C10.04600021 -0.013837 14.86569629 0.23236048 20.5 3.375 C21.30566406 3.80039062 22.11132812 4.22578125 22.94140625 4.6640625 C31.24136141 9.89165857 35.12893498 16.25449509 37.85525513 25.53363037 C38.93956062 30.31212932 38.88792552 34.99535592 38.828125 39.875 C38.82625183 40.95015869 38.82437866 42.02531738 38.82244873 43.13305664 C38.81576163 45.39879477 38.80191436 47.66452202 38.78125 49.93017578 C38.75033856 53.33767889 38.74029017 56.74471472 38.734375 60.15234375 C38.68951045 72.58934193 38.36164755 84.96727525 37.5 97.375 C35.04166667 97.41666667 32.58333333 97.45833333 30.125 97.5 C29.36010254 97.51820801 28.59520508 97.53641602 27.80712891 97.55517578 C26.03712725 97.5698117 24.26727545 97.47428514 22.5 97.375 C19.56552643 94.44052643 20.03841577 91.19240544 19.875 87.25 C19.81699219 86.11884766 19.81699219 86.11884766 19.7578125 84.96484375 C19.66348969 83.10196816 19.58065338 81.23851745 19.5 79.375 C20.16 79.375 20.82 79.375 21.5 79.375 C21.45821572 72.54269227 21.38577687 65.71119155 21.29248047 58.87939453 C21.26433468 56.55752861 21.24308851 54.23556801 21.22900391 51.91357422 C21.20748645 48.56689201 21.16078876 45.22134051 21.109375 41.875 C21.10814636 40.8444751 21.10691772 39.8139502 21.10565186 38.75219727 C20.97953341 32.48157248 20.14570992 27.59009741 16.5 22.375 C11.55184971 17.70707283 6.88615654 17.79126126 0.4375 17.9375 C-0.44744141 17.93041016 -1.33238281 17.92332031 -2.24414062 17.91601562 C-7.13798279 17.96374252 -10.54126736 18.19729392 -14.5 21.375 C-19.41590612 26.56401202 -19.61246225 31.06325067 -19.70532227 38.0012207 C-19.72017166 38.96791939 -19.72017166 38.96791939 -19.73532104 39.95414734 C-19.76673387 42.06965549 -19.79161279 44.18518605 -19.81640625 46.30078125 C-19.83699328 47.77337708 -19.8579902 49.24596724 -19.87937927 50.71855164 C-19.93441943 54.58345933 -19.98390786 58.44841874 -20.03222656 62.31341553 C-20.08257392 66.26172457 -20.13819072 70.20995903 -20.19335938 74.15820312 C-20.30071992 81.89707387 -20.40172608 89.63600756 -20.5 97.375 C-25.78 97.375 -31.06 97.375 -36.5 97.375 C-38.03266582 94.30966836 -37.60276471 91.10745728 -37.5625 87.75 C-37.55798828 87.04359375 -37.55347656 86.3371875 -37.54882812 85.609375 C-37.53703875 83.86454725 -37.51910324 82.119763 -37.5 80.375 C-38.16 80.045 -38.82 79.715 -39.5 79.375 C-38.84 79.375 -38.18 79.375 -37.5 79.375 C-37.50666183 78.74352554 -37.51332367 78.11205109 -37.52018738 77.46144104 C-37.58682265 70.85854205 -37.63191725 64.2557394 -37.66479492 57.65258789 C-37.6798334 55.19193641 -37.70026942 52.73131151 -37.72631836 50.27075195 C-37.76291856 46.72340308 -37.77977635 43.17641023 -37.79296875 39.62890625 C-37.81619453 37.99242882 -37.81619453 37.99242882 -37.83988953 36.32289124 C-37.84217331 25.83694091 -35.28558981 17.49019862 -28.5 9.375 C-19.68450914 1.15079207 -11.75016703 -0.1138337 0 0 Z " fill="#47B2B1" transform="translate(663.5,755.625)"/>
<path d="M0 0 C1.16917969 -0.04576172 2.33835937 -0.09152344 3.54296875 -0.13867188 C13.27568393 -0.26289632 21.10221628 2.08386082 28.4765625 8.63891602 C36.29366346 16.55316483 38.62219188 25.61982127 38.6015625 36.4921875 C38.61013275 37.5149881 38.618703 38.5377887 38.62753296 39.59158325 C38.63894672 41.74120136 38.64007417 43.89089665 38.63134766 46.04052734 C38.6250283 49.29791303 38.67202009 52.55165597 38.72265625 55.80859375 C38.807958 69.78334983 37.79389273 79.22154434 28.125 89.9375 C20.29486603 97.02894209 14.52964323 97.91612015 4 97.4375 C4 92.1575 4 86.8775 4 81.4375 C10 79.4375 10 79.4375 12.0625 79.1875 C15.36482273 77.90918152 16.94495275 75.21459088 19 72.4375 C20.31351754 68.49694739 20.18234977 64.71490184 20.203125 60.60546875 C20.21167511 59.30141838 20.21167511 59.30141838 20.22039795 57.97102356 C20.22984278 56.13100398 20.23637988 54.29096752 20.24023438 52.45092773 C20.24992737 49.64601856 20.2809501 46.84184621 20.3125 44.03710938 C20.31903168 42.24740017 20.3242815 40.45768574 20.328125 38.66796875 C20.3404718 37.83339645 20.3528186 36.99882416 20.36553955 36.13896179 C20.34226393 30.00657769 19.10786346 25.87471712 15 21.125 C10.78602575 17.56945922 5.90931362 18.21902793 0.6875 18.1875 C-0.15490234 18.166875 -0.99730469 18.14625 -1.86523438 18.125 C-6.97512987 18.09303818 -10.68431592 18.40313424 -15 21.4375 C-19.38413189 26.60104429 -19.60042 30.74065935 -19.609375 37.2109375 C-19.62591125 38.1346817 -19.64244751 39.0584259 -19.65948486 40.01016235 C-19.70785236 42.9443433 -19.72931083 45.87800638 -19.75 48.8125 C-19.77816909 50.80861965 -19.80809782 52.80471529 -19.83984375 54.80078125 C-19.91360839 59.67964485 -19.96325178 64.55822286 -20 69.4375 C-22.81256281 69.46434312 -25.62487241 69.48426188 -28.4375 69.5 C-29.23994141 69.50837891 -30.04238281 69.51675781 -30.86914062 69.52539062 C-32.91295221 69.5340143 -34.95683902 69.4897815 -37 69.4375 C-39.0928224 67.3446776 -38.18853541 62.7952661 -38.203125 59.90625 C-38.20882507 59.04116821 -38.21452515 58.17608643 -38.22039795 57.28479004 C-38.22986908 55.44540638 -38.23639027 53.60600559 -38.24023438 51.76660156 C-38.24986399 48.97690143 -38.28083459 46.18796209 -38.3125 43.3984375 C-38.31903761 41.60937936 -38.32428509 39.82031596 -38.328125 38.03125 C-38.3404718 37.20588745 -38.3528186 36.3805249 -38.36553955 35.53015137 C-38.34348561 29.67386763 -37.14128455 24.87189222 -35 19.4375 C-34.608125 18.426875 -34.21625 17.41625 -33.8125 16.375 C-29.52266545 9.42250952 -23.0776697 3.35212759 -15.1640625 0.85913086 C-10.18856774 -0.11025987 -5.05164113 0.07867755 0 0 Z " fill="#42E28D" transform="translate(865,755.5625)"/>
<path d="M0 0 C1.16917969 -0.04576172 2.33835937 -0.09152344 3.54296875 -0.13867188 C12.89345743 -0.25801773 20.45787459 1.80537981 27.74707031 7.89770508 C29.0703125 9.2890625 29.0703125 9.2890625 31.125 12.0625 C31.82882812 12.98289062 32.53265625 13.90328125 33.2578125 14.8515625 C35.98938232 18.90604506 37.25201317 21.53889295 37.22705078 26.48144531 C37.22689972 27.48218079 37.22674866 28.48291626 37.22659302 29.51397705 C37.21627045 30.58702087 37.20594788 31.6600647 37.1953125 32.765625 C37.1924826 33.86976746 37.18965271 34.97390991 37.18673706 36.11151123 C37.17554489 39.6369512 37.15044175 43.16213685 37.125 46.6875 C37.11496897 49.07812133 37.10584333 51.46874664 37.09765625 53.859375 C37.0756087 59.71883673 37.04214053 65.57815019 37 71.4375 C34.52076199 71.46435095 32.0418116 71.48426547 29.5625 71.5 C28.85544922 71.50837891 28.14839844 71.51675781 27.41992188 71.52539062 C25.61306441 71.53403588 23.80612397 71.48970011 22 71.4375 C19.86937401 69.30687401 20.78913259 64.50303234 20.75390625 61.546875 C20.7209558 59.70442255 20.68774437 57.86197475 20.65429688 56.01953125 C20.60694556 53.10534002 20.56254951 50.19116603 20.52319336 47.27685547 C20.48339315 44.47082143 20.43185292 41.66518748 20.37890625 38.859375 C20.3704921 37.99149353 20.36207794 37.12361206 20.35340881 36.22943115 C20.24871239 31.08806072 20.12806139 26.64740991 16.375 22.75 C15.694375 22.1003125 15.694375 22.1003125 15 21.4375 C15 20.7775 15 20.1175 15 19.4375 C10.20214483 18.22086597 5.47979072 18.21778355 0.5625 18.1875 C-0.27087891 18.166875 -1.10425781 18.14625 -1.96289062 18.125 C-7.02581694 18.09298149 -10.76256934 18.36707896 -15 21.4375 C-19.48957978 27.5227243 -19.56089935 32.66557176 -19.50390625 40.07421875 C-19.51332748 41.19004837 -19.52274872 42.30587799 -19.53245544 43.45552063 C-19.56103731 47.01220135 -19.56418762 50.56821397 -19.5625 54.125 C-19.56612511 57.66383598 -19.57587749 61.20218499 -19.60325623 64.74092102 C-19.61984404 66.93697574 -19.62308155 69.13318956 -19.61024475 71.32926941 C-19.67317919 80.63293171 -21.54874966 88.80937416 -25 97.4375 C-28.96 97.4375 -32.92 97.4375 -37 97.4375 C-38.585869 94.265762 -38.37866445 90.80236178 -38.5625 87.3125 C-38.60568359 86.55839844 -38.64886719 85.80429687 -38.69335938 85.02734375 C-38.7994832 83.16428112 -38.90025001 81.30091476 -39 79.4375 C-38.34 79.4375 -37.68 79.4375 -37 79.4375 C-37.00666183 78.78096939 -37.01332367 78.12443878 -37.02018738 77.44801331 C-37.08680204 70.58559082 -37.13190885 63.72326093 -37.16479492 56.8605957 C-37.1798371 54.30294053 -37.20027589 51.74531096 -37.22631836 49.18774414 C-37.26290204 45.50140037 -37.27977268 41.81539909 -37.29296875 38.12890625 C-37.30845261 36.99417374 -37.32393646 35.85944122 -37.33988953 34.69032288 C-37.34235333 22.94239754 -34.72487525 16.33132041 -26.5703125 7.83203125 C-18.45918831 0.2756192 -10.64617637 0.16581048 0 0 Z " fill="#43EE83" transform="translate(951,755.5625)"/>
<path d="M0 0 C7.09834772 -0.09927225 14.19628651 -0.17166048 21.29516602 -0.21972656 C23.70734705 -0.23977552 26.11947989 -0.26702192 28.53149414 -0.30175781 C32.00939873 -0.35057051 35.48665772 -0.37303683 38.96484375 -0.390625 C40.03395493 -0.41127014 41.1030661 -0.43191528 42.20457458 -0.45318604 C52.03204664 -0.45609585 59.0210187 2.39600541 66.2109375 9.0703125 C74.35300381 17.85236656 76.1897338 27.67120515 76.125 39.3125 C76.12886719 40.02728516 76.13273438 40.74207031 76.13671875 41.47851562 C76.12678867 46.74642266 76.12678867 46.74642266 75 49 C55.86 49 36.72 49 17 49 C17 55.6 17 62.2 17 69 C11.25503356 73.59597315 11.25503356 73.59597315 7.875 75.3125 C7.21242188 75.65925781 6.54984375 76.00601563 5.8671875 76.36328125 C4 77 4 77 1 76 C0.0938368 73.2815104 -0.12630299 71.70429744 -0.12939453 68.91162109 C-0.13254669 68.09422455 -0.13569885 67.276828 -0.13894653 66.43466187 C-0.1369223 65.55645782 -0.13489807 64.67825378 -0.1328125 63.7734375 C-0.13376923 62.87001617 -0.13472595 61.96659485 -0.13571167 61.03579712 C-0.13639192 59.12770518 -0.13454845 57.21961092 -0.13037109 55.31152344 C-0.12500824 52.37950495 -0.13032771 49.44763879 -0.13671875 46.515625 C-0.13605819 44.66406216 -0.13477747 42.81249942 -0.1328125 40.9609375 C-0.13483673 40.078685 -0.13686096 39.1964325 -0.13894653 38.28744507 C-0.1149583 32.1149583 -0.1149583 32.1149583 1 31 C2.77991924 30.90629376 4.56356739 30.88255729 6.34594727 30.88647461 C8.05760826 30.88658791 8.05760826 30.88658791 9.80384827 30.88670349 C11.0454924 30.89186478 12.28713654 30.89702606 13.56640625 30.90234375 C15.46204567 30.90446617 15.46204567 30.90446617 17.39598083 30.90663147 C20.76124889 30.91129418 24.1264499 30.9202852 27.49169922 30.93133545 C30.9234967 30.94155154 34.35530109 30.94612951 37.78710938 30.95117188 C44.52475824 30.9622262 51.26237525 30.9789829 58 31 C57.5565625 29.90429688 57.113125 28.80859375 56.65625 27.6796875 C56.28209961 26.75518799 56.28209961 26.75518799 55.90039062 25.81201172 C54.47106569 22.93553405 52.42214165 21.0588204 50 19 C47.16037579 18.0534586 45.29593471 17.85005776 42.3449707 17.79467773 C41.40422195 17.77473251 40.46347321 17.75478729 39.49421692 17.73423767 C38.48163315 17.71752518 37.46904938 17.70081268 36.42578125 17.68359375 C35.38681198 17.66281265 34.34784271 17.64203156 33.27738953 17.62062073 C29.95582747 17.55519344 26.63418584 17.49627179 23.3125 17.4375 C21.0618407 17.39430831 18.81118948 17.35069381 16.56054688 17.30664062 C11.04044631 17.19951897 5.52026563 17.09823211 0 17 C0 11.39 0 5.78 0 0 Z " fill="#499AC4" transform="translate(542,756)"/>
<path d="M0 0 C1.32 0.66 2.64 1.32 4 2 C4.20461798 8.29200282 3.47509321 14.02213415 2.25 20.1875 C2.06663086 21.1158667 1.88326172 22.0442334 1.69433594 23.00073242 C-1.67015775 39.57071953 -7.24409254 56.37706249 -19 69 C-19.58394531 69.64839844 -20.16789063 70.29679688 -20.76953125 70.96484375 C-35.67494026 85.8114543 -57.89540579 92.2654968 -78.39648438 92.3190918 C-90.79991661 92.13606324 -101.98644503 88.69344791 -113 83 C-113 81.68 -113 80.36 -113 79 C-112.41299316 79.06928711 -111.82598633 79.13857422 -111.22119141 79.20996094 C-87.61137532 81.80708692 -62.90923407 81.47556402 -43.1171875 66.7421875 C-36.17424354 61.02899007 -31.19436633 52.8800721 -30.1875 43.875 C-30.0946875 41.956875 -30.0946875 41.956875 -30 40 C-36.4176107 36.05070111 -41.75837236 36.43400152 -48.9375 37.6875 C-53.15662695 38.8458575 -56.88499963 40.87294566 -60.703125 42.9765625 C-63 44 -63 44 -67 44 C-65.01256271 36.93355629 -59.47556489 31.68391355 -53.5 27.75 C-45.24638773 23.14942156 -35.92475869 21.46038143 -26.69946289 19.9140625 C-15.0783782 17.94461894 -8.26669002 14.41632179 -1 5 C-1.495 4.01 -1.495 4.01 -2 3 C-1.34 3 -0.68 3 0 3 C0 2.01 0 1.02 0 0 Z " fill="#06060E" transform="translate(781,596)"/>
<path d="M0 0 C3.86097306 1.28699102 3.96775835 2.53766238 6 6 C6.86228512 7.21208002 7.76131836 8.39851496 8.6875 9.5625 C9.34298828 10.39974609 9.34298828 10.39974609 10.01171875 11.25390625 C17.80393838 18.09697535 28.18920469 18.79401061 38.02734375 20.44726562 C50.32041992 22.74017482 59.47625028 27.45612837 67.671875 36.984375 C69 39 69 39 69 42 C65.11993421 41.60204453 62.00223058 40.63555946 58.5 39 C52.2356659 36.11840632 45.86550359 35.26572154 39 36 C35.54653852 37.34746524 35.54653852 37.34746524 33 39 C32.552915 48.55644189 37.61373479 56.58260397 43.64453125 63.7109375 C50.89754879 70.75947528 60.35874067 74.46215528 70 77 C71.27617188 77.33837891 71.27617188 77.33837891 72.578125 77.68359375 C86.11903686 80.55410869 101.33593553 79.77363246 115 78 C115.33 79.32 115.66 80.64 116 82 C95.68789188 92.50032708 74.69663588 93.82340245 53 87 C49.16450403 85.59024863 45.59742679 83.93334763 42 82 C41.01515625 81.48566406 40.0303125 80.97132813 39.015625 80.44140625 C26.50554872 73.56721459 18.87014544 65.47515921 12 53 C11.60167969 52.33613281 11.20335937 51.67226563 10.79296875 50.98828125 C7.01891512 44.29722999 3 33.6799721 3 26 C2.34 26 1.68 26 1 26 C-2.62962963 5.25925926 -2.62962963 5.25925926 0 0 Z " fill="#06060E" transform="translate(498,597)"/>
<path d="M0 0 C1.77665543 0.01061211 1.77665543 0.01061211 3.58920288 0.0214386 C7.33878151 0.04922552 11.08681708 0.11193875 14.8359375 0.17578125 C17.39190538 0.20088422 19.94789688 0.22369386 22.50390625 0.24414062 C28.7401697 0.2990014 34.97529281 0.38516817 41.2109375 0.48828125 C41.2109375 6.09828125 41.2109375 11.70828125 41.2109375 17.48828125 C38.97824097 17.51015503 38.97824097 17.51015503 36.70043945 17.5324707 C31.17447975 17.59047216 25.64892673 17.66770572 20.12329102 17.75073242 C17.73240767 17.78397292 15.34144602 17.81200754 12.95043945 17.8347168 C9.51219331 17.86827808 6.07466421 17.92059649 2.63671875 17.9765625 C1.03489494 17.98614738 1.03489494 17.98614738 -0.59928894 17.9959259 C-7.71678115 18.04826176 -7.71678115 18.04826176 -13.7890625 21.48828125 C-16.07701432 25.1282046 -15.90762792 28.29783123 -15.56640625 32.42578125 C-14.234628 35.95934364 -12.91228885 37.28054827 -9.7890625 39.48828125 C-5.54306849 40.18360354 -1.3338824 40.14197715 2.9609375 40.11328125 C15.42414298 40.11328125 24.22954168 41.33800398 33.8359375 49.80078125 C39.8628401 56.62069735 41.33993884 62.58718867 41.2109375 71.48828125 C35.9309375 71.48828125 30.6509375 71.48828125 25.2109375 71.48828125 C24.29947917 69.2421875 23.38802083 66.99609375 22.4765625 64.75 C20.99384714 62.10033274 19.79701202 61.06785646 17.2109375 59.48828125 C14.5438387 59.01932234 14.5438387 59.01932234 11.6328125 59.046875 C10.55386719 59.02044922 9.47492188 58.99402344 8.36328125 58.96679688 C7.24050781 58.95326172 6.11773437 58.93972656 4.9609375 58.92578125 C-6.97286844 58.73823017 -16.60393249 58.06986034 -25.7421875 49.69921875 C-31.60523962 43.51591588 -33.86862242 37.46150288 -34.1640625 28.98828125 C-33.84031457 20.04785757 -31.22489686 14.38150825 -25.41015625 7.62890625 C-17.43232585 1.11347993 -10.10627874 -0.23089022 0 0 Z " fill="#4861EE" transform="translate(408.7890625,755.51171875)"/>
<path d="M0 0 C4.55318701 -0.07468636 9.10600998 -0.12885256 13.65966797 -0.16479492 C15.20562968 -0.1797933 16.75154948 -0.20019887 18.29736328 -0.22631836 C30.3812424 -0.425246 39.81142419 0.24897541 49 9 C56.29291131 17.88977903 58.48812746 26.14877008 58.25 37.4375 C58.24484375 38.44232422 58.2396875 39.44714844 58.234375 40.48242188 C58.15472274 47.84527726 58.15472274 47.84527726 57 49 C55.54813424 49.10673106 54.09123598 49.14619249 52.63549805 49.15771484 C51.707509 49.16797699 50.77951996 49.17823914 49.82341003 49.18881226 C48.30787285 49.19976425 48.30787285 49.19976425 46.76171875 49.2109375 C44.64126836 49.23900869 42.52082575 49.26767317 40.40039062 49.296875 C37.04272702 49.33814869 33.68520836 49.37501798 30.32739258 49.40136719 C27.09685865 49.42894405 23.86699532 49.47482174 20.63671875 49.5234375 C19.63243332 49.52669037 18.62814789 49.52994324 17.59342957 49.53329468 C16.65598404 49.54986115 15.71853851 49.56642761 14.75268555 49.58349609 C13.92963425 49.59158295 13.10658295 49.5996698 12.2585907 49.60800171 C9.50328946 50.08620848 8.15039657 51.26603331 6 53 C5.34 53 4.68 53 4 53 C2.06757715 56.34520258 1.4536147 59.44767482 0.875 63.25 C0.441875 66.09625 0.441875 66.09625 0 69 C-5.28 69.66 -10.56 70.32 -16 71 C-19.27395489 62.81511278 -18.26731399 57.61046946 -15.15625 49.6328125 C-13.66664331 46.2409378 -11.95631866 43.14408355 -10 40 C-9.01 40 -8.02 40 -7 40 C-4.85463255 38.64433836 -2.86548158 37.13318443 -0.83984375 35.60546875 C8.10162498 30.55052563 17.06459797 30.61787913 27.125 30.8125 C28.47654746 30.82758568 29.82811135 30.84126717 31.1796875 30.85351562 C34.45355371 30.88859276 37.7265568 30.93774903 41 31 C40.38058338 29.71537477 39.75585374 28.43331049 39.12890625 27.15234375 C38.78158447 26.43812256 38.4342627 25.72390137 38.07641602 24.98803711 C36.04920899 21.24398023 34.01208363 19.33736121 30 18 C27.80190044 17.86057502 25.6002446 17.77466513 23.3984375 17.71875 C22.10421875 17.68136719 20.81 17.64398437 19.4765625 17.60546875 C17.41799734 17.5517113 15.35939518 17.49960694 13.30078125 17.44775391 C11.31239502 17.39615055 9.3241607 17.33879339 7.3359375 17.28125 C6.14532715 17.25095703 4.9547168 17.22066406 3.72802734 17.18945312 C1 17 1 17 0 16 C-0.07319621 13.30345146 -0.09242537 10.63308542 -0.0625 7.9375 C-0.05798828 7.17888672 -0.05347656 6.42027344 -0.04882812 5.63867188 C-0.0370068 3.75908129 -0.01907078 1.87953101 0 0 Z " fill="#4753F8" transform="translate(309,756)"/>
<path d="M0 0 C1.12209366 0.00424484 2.24418732 0.00848969 3.40028381 0.01286316 C6.96632392 0.02958778 10.5317884 0.06722953 14.09765625 0.10546875 C16.52277827 0.12052358 18.94790919 0.13421058 21.37304688 0.14648438 C27.30230341 0.17947111 33.2311324 0.23121138 39.16015625 0.29296875 C39.16015625 5.90296875 39.16015625 11.51296875 39.16015625 17.29296875 C37.7625708 17.30755127 36.36498535 17.32213379 34.92504883 17.3371582 C29.73452303 17.39517706 24.5444294 17.47241038 19.35424805 17.55541992 C17.10887675 17.58865226 14.86342225 17.61668944 12.61791992 17.6394043 C9.38814882 17.67298077 6.15913898 17.72529948 2.9296875 17.78125 C1.9274263 17.78763992 0.9251651 17.79402985 -0.10746765 17.8006134 C-6.96484548 17.93514263 -6.96484548 17.93514263 -12.83984375 21.29296875 C-18.1300668 27.02404372 -17.93179555 31.58466179 -17.76953125 39.1171875 C-17.75862569 40.88605134 -17.75091566 42.65493724 -17.74609375 44.42382812 C-17.73825554 47.19929044 -17.71515162 49.96944096 -17.63769531 52.74389648 C-17.21536945 68.94414308 -17.21536945 68.94414308 -21.22363281 73.56884766 C-25.48256486 77.18546986 -28.16234937 79.29296875 -33.83984375 79.29296875 C-35.62797092 73.14864525 -36.14716222 67.62041433 -36.140625 61.23828125 C-36.14491013 60.29669159 -36.14919525 59.35510193 -36.15361023 58.38497925 C-36.15932444 56.4033081 -36.15987539 54.421616 -36.15551758 52.43994141 C-36.15236011 49.43354949 -36.17584504 46.42814544 -36.20117188 43.421875 C-36.20344565 41.48567831 -36.204148 39.54947901 -36.203125 37.61328125 C-36.21693962 36.28467575 -36.21693962 36.28467575 -36.23103333 34.92922974 C-36.15891763 25.03789466 -33.76858319 16.54941884 -26.83984375 9.29296875 C-18.35874894 1.69101182 -11.18974101 -0.1605104 0 0 Z " fill="#486FE4" transform="translate(495.83984375,755.70703125)"/>
<path d="M0 0 C0.33 0 0.66 0 1 0 C2.08285025 15.91319066 2.14678255 31.78945402 2.1328125 47.734375 C2.13303633 50.47056107 2.13445815 53.20674636 2.13571167 55.94293213 C2.13751564 61.63774104 2.13517102 67.33253684 2.13037109 73.02734375 C2.12490035 79.59355384 2.12671852 86.159733 2.1321975 92.72594237 C2.13674203 98.40197442 2.13737355 104.07799719 2.13475883 109.75403047 C2.13320746 113.12813719 2.13297147 116.50222938 2.13629532 119.87633514 C2.13883612 123.62558594 2.13496248 127.37477709 2.12939453 131.12402344 C2.13141876 132.22849823 2.13344299 133.33297302 2.13552856 134.47091675 C2.12099554 139.75631756 1.92874296 144.79330069 1 150 C-3.06681013 145.48132208 -5.49967793 140.48202798 -8 135 C-8.51046875 133.88238281 -9.0209375 132.76476562 -9.546875 131.61328125 C-21.56517799 104.13704364 -19.92924393 71.28003559 -14.44970703 42.49072266 C-14.05802974 40.32140034 -13.75622622 38.16844007 -13.49609375 35.98046875 C-13 33 -13 33 -11 30 C-10.51027294 28.12753994 -10.51027294 28.12753994 -10.1875 26.0625 C-8.94340814 20.03796068 -6.48304796 14.6035351 -4 9 C-3.39865234 7.63101562 -3.39865234 7.63101562 -2.78515625 6.234375 C-1.86524117 4.15228963 -0.93757132 2.07418012 0 0 Z " fill="#4652F8" transform="translate(586,428)"/>
<path d="M0 0 C1.93719378 -0.05406122 3.87481921 -0.09282025 5.8125 -0.125 C6.89144531 -0.14820313 7.97039063 -0.17140625 9.08203125 -0.1953125 C12 0 12 0 15 2 C16.18245456 4.4569737 17.21465522 6.83839732 18.1875 9.375 C18.59645508 10.38433594 18.59645508 10.38433594 19.01367188 11.4140625 C20.36789052 14.86239871 21 17.24581257 21 21 C21.66 21 22.32 21 23 21 C23.24234375 21.76183594 23.4846875 22.52367187 23.734375 23.30859375 C24.06953125 24.34113281 24.4046875 25.37367188 24.75 26.4375 C25.07484375 27.44683594 25.3996875 28.45617187 25.734375 29.49609375 C26.96254459 32.896304 28.37858158 36.13289008 29.8671875 39.42358398 C32.09647361 44.49376854 34.08911201 49.66236792 36.125 54.8125 C37.00097926 57.02798691 37.87851865 59.24285776 38.7578125 61.45703125 C39.1408252 62.42616455 39.52383789 63.39529785 39.91845703 64.39379883 C40.93635424 66.9599821 40.93635424 66.9599821 42.14013672 69.15893555 C43 71 43 71 43 74 C36.81236115 75.95399122 32.60088214 73.49297425 27 71 C25.37786641 70.34700053 23.7528629 69.70108287 22.125 69.0625 C16.39126136 66.76900454 10.69646121 64.38423314 5 62 C2.75015165 61.06213611 0.50015661 60.12462405 -1.75 59.1875 C-3.5 58.45833333 -5.25 57.72916667 -7 57 C-8.79068573 59.6860286 -9.66055791 61.6626589 -10.625 64.6875 C-10.88539063 65.49574219 -11.14578125 66.30398438 -11.4140625 67.13671875 C-11.70410156 68.05904297 -11.70410156 68.05904297 -12 69 C-12.66 69 -13.32 69 -14 69 C-14.12375 69.804375 -14.2475 70.60875 -14.375 71.4375 C-14.58125 72.283125 -14.7875 73.12875 -15 74 C-17.35270593 75.17635297 -18.820752 75.13359359 -21.4375 75.125 C-22.61119141 75.12886719 -22.61119141 75.12886719 -23.80859375 75.1328125 C-26 75 -26 75 -29 74 C-28.39461212 70.64048698 -27.56675919 67.55115637 -26.37109375 64.35546875 C-26.05849609 63.51435547 -25.74589844 62.67324219 -25.42382812 61.80664062 C-25.09833984 60.94232422 -24.77285156 60.07800781 -24.4375 59.1875 C-24.10814453 58.30384766 -23.77878906 57.42019531 -23.43945312 56.50976562 C-22.62965399 54.33856505 -21.81641107 52.16872111 -21 50 C-20.34 50 -19.68 50 -19 50 C-18.87625 49.0925 -18.7525 48.185 -18.625 47.25 C-18.07890323 44.41029677 -17.42736197 42.47409409 -16 40 C-10.37420387 40.55372009 -5.79702125 42.0776329 -0.625 44.3125 C0.12015869 44.62646729 0.86531738 44.94043457 1.63305664 45.26391602 C5.59066153 46.93856959 9.52159667 48.66738435 13.4375 50.4375 C16.65691414 52.13388717 16.65691414 52.13388717 19 52 C15.61017813 41.31922048 11.54146562 31.04305869 6.69921875 20.9375 C6 19 6 19 6 15 C5.34 15 4.68 15 4 15 C3.3317426 12.68794873 2.66532276 10.37539569 2 8.0625 C1.80921875 7.40314453 1.6184375 6.74378906 1.421875 6.06445312 C0 1.11328125 0 1.11328125 0 0 Z " fill="#05050C" transform="translate(709,835)"/>
<path d="M0 0 C0.66 0.33 1.32 0.66 2 1 C2.09267747 10.18809939 2.16375324 19.37603791 2.20724869 28.56450272 C2.22812433 32.83109292 2.25644109 37.09736336 2.30175781 41.36376953 C2.3452171 45.48106784 2.36913728 49.59805857 2.37950897 53.71556854 C2.38690027 55.2864847 2.40133388 56.85738402 2.42292023 58.42816925 C2.45195682 60.62858969 2.45595612 62.82773913 2.45410156 65.02832031 C2.46298401 66.28074524 2.47186646 67.53317017 2.48101807 68.82354736 C1.9146955 72.56331708 0.99685595 73.7640703 -2 76 C-2.66 76 -3.32 76 -4 76 C-4 76.66 -4 77.32 -4 78 C-11.40707725 84.71171897 -22.71624938 92 -33 92 C-33.25407499 85.7020513 -33.42886704 79.40542634 -33.54931641 73.10351562 C-33.59953209 70.96141184 -33.66772347 68.81964961 -33.75439453 66.67871094 C-34.45927165 48.81629539 -34.45927165 48.81629539 -30.87451172 44.35449219 C-28.27311789 42.82110947 -25.85542709 41.9451138 -23 41 C-15.46534603 35.23667911 -11.335822 27.2177829 -7 19 C-6.57589844 18.24332031 -6.15179687 17.48664062 -5.71484375 16.70703125 C-2.84754456 11.41942628 -1.41306194 5.82352801 0 0 Z " fill="#42D795" transform="translate(684,518)"/>
<path d="M0 0 C0.969375 0.86625 1.93875 1.7325 2.9375 2.625 C14.97213892 12.8471933 22.49655546 15.26949573 39 14 C39 28.85 39 43.7 39 59 C10.80559069 59 10.80559069 59 1.37280273 52.06982422 C-2.08931026 47.59069994 -1.64884838 43.81075365 -1.5234375 38.30078125 C-1.51873444 37.26938522 -1.51403137 36.2379892 -1.50918579 35.17533875 C-1.48786545 31.887042 -1.43124391 28.60036511 -1.375 25.3125 C-1.35849155 23.08790577 -1.34414383 20.86329438 -1.33203125 18.63867188 C-1.29807463 14.57962578 -1.26337376 10.52074719 -1.19287109 6.4621582 C-1.18001068 5.6467305 -1.16715027 4.8313028 -1.15390015 3.99116516 C-1 2 -1 2 0 0 Z " fill="#467DDA" transform="translate(612,552)"/>
<path d="M0 0 C9.45388587 1.33153322 16.261029 4.26792002 22.375 11.8125 C26.68472167 18.09751077 29.20708283 25.32739307 28 33 C25.94242254 41.70911717 21.87729242 49.11087427 14.28881836 54.13232422 C6.919337 58.099496 -0.95637063 57.44615334 -9.0625 57.25 C-10.51494923 57.2298969 -11.96742544 57.21165288 -13.41992188 57.1953125 C-16.94718334 57.15163506 -20.47341499 57.08282107 -24 57 C-26 51.66666667 -28 46.33333333 -30 41 C-15.15 40.505 -15.15 40.505 0 40 C0.33 39.34 0.66 38.68 1 38 C2.32 38.33 3.64 38.66 5 39 C8.26228517 35.42200982 9.89988029 32.90586597 10 28 C8.44874877 23.83611513 6.83797869 21.27879985 3 19 C2.01 18.67 1.02 18.34 0 18 C0 12.06 0 6.12 0 0 Z " fill="#45C99F" transform="translate(759,796)"/>
<path d="M0 0 C0.680625 -0.01417969 1.36125 -0.02835938 2.0625 -0.04296875 C4 0.1875 4 0.1875 7 2.1875 C7.34057617 5.07666016 7.34057617 5.07666016 7.29296875 8.7265625 C7.28330078 10.02851562 7.27363281 11.33046875 7.26367188 12.671875 C7.23860388 14.05208923 7.21320902 15.43229756 7.1875 16.8125 C7.17245517 18.20050663 7.15876641 19.58852867 7.14648438 20.9765625 C7.1110257 24.38059509 7.06160298 27.78385622 7 31.1875 C8.96005981 31.14036865 8.96005981 31.14036865 10.9597168 31.09228516 C15.81428304 30.98356983 20.66874206 30.91476085 25.52416992 30.85791016 C27.62428896 30.82776258 29.72428234 30.78683667 31.82397461 30.73486328 C34.84520466 30.66195922 37.86476873 30.62802361 40.88671875 30.6015625 C41.82335861 30.57059479 42.75999847 30.53962708 43.72502136 30.50772095 C48.38909095 30.50532049 50.36049171 30.67605445 54.1015625 33.66796875 C56.48217036 38.08140019 56.64704813 41.16270832 56.48828125 46.0859375 C56.48120651 46.92089752 56.47413177 47.75585754 56.46684265 48.61611938 C56.43899925 51.26584973 56.37628406 53.91341559 56.3125 56.5625 C56.28740393 58.36585475 56.26459305 60.16924285 56.24414062 61.97265625 C56.18920611 66.37842983 56.10300712 70.78259879 56 75.1875 C52.10835652 76.48471449 49.10570774 76.31783993 45 76.1875 C44.01 75.6925 44.01 75.6925 43 75.1875 C43 63.9675 43 52.7475 43 41.1875 C39.87015625 41.22230469 36.7403125 41.25710938 33.515625 41.29296875 C30.48405876 41.31636549 27.45250258 41.33458144 24.42089844 41.35229492 C22.3140818 41.36738069 20.20729656 41.38785193 18.10058594 41.41381836 C15.0721868 41.45021053 12.04420291 41.4672285 9.015625 41.48046875 C7.60292328 41.50369453 7.60292328 41.50369453 6.16168213 41.52738953 C5.28107117 41.52761612 4.40046021 41.52784271 3.49316406 41.52807617 C2.33400482 41.53806892 2.33400482 41.53806892 1.15142822 41.54826355 C-1.6111176 41.08502437 -2.96742121 40.08835562 -5 38.1875 C-6.20161511 34.58265466 -6.23017136 31.21460143 -6.31640625 27.45703125 C-6.33718735 26.70661057 -6.35796844 25.95618988 -6.37937927 25.18302917 C-6.44469926 22.78877816 -6.50367792 20.39441861 -6.5625 18 C-6.60570193 16.37563987 -6.64931676 14.75129067 -6.69335938 13.12695312 C-6.80036263 9.14724629 -6.90167937 5.16743042 -7 1.1875 C-4.35559361 0.3060312 -2.71939248 0.02575182 0 0 Z " fill="#05050D" transform="translate(432,833.8125)"/>
<path d="M0 0 C4.64477144 -0.02472039 9.28950457 -0.04286968 13.93432617 -0.05493164 C15.51441108 -0.05996014 17.09449134 -0.06678378 18.67456055 -0.07543945 C20.94581246 -0.08756992 23.21700285 -0.09324313 25.48828125 -0.09765625 C26.19463211 -0.10281754 26.90098297 -0.10797882 27.6287384 -0.11329651 C30.70254391 -0.11364803 33.0590442 0.0196814 36 1 C36 25.09 36 49.18 36 74 C33.32356043 74.89214652 31.74615622 75.13540211 29 75.125 C27.9790625 75.12886719 27.9790625 75.12886719 26.9375 75.1328125 C25 75 25 75 22 74 C22 53.54 22 33.08 22 12 C18.37 12 14.74 12 11 12 C11 14.64 11 17.28 11 20 C8.85423363 20.02685938 6.70837355 20.04633088 4.5625 20.0625 C3.36753906 20.07410156 2.17257812 20.08570313 0.94140625 20.09765625 C-2 20 -2 20 -3 19 C-3.53514239 13.85035107 -4.01311265 8.74166913 -1 4.3125 C-0.34 3.549375 0.32 2.78625 1 2 C0.67 1.34 0.34 0.68 0 0 Z " fill="#04040B" transform="translate(806,835)"/>
<path d="M0 0 C0.13242085 8.72961041 0.26291828 17.45924708 0.39115143 26.18892002 C0.45079162 30.24518271 0.51102391 34.30143455 0.57275391 38.35766602 C0.84953008 56.57288803 1.08539125 74.78201385 1 93 C-4.28 93 -9.56 93 -15 93 C-16.53266582 89.93466836 -16.10276471 86.73245728 -16.0625 83.375 C-16.05798828 82.66859375 -16.05347656 81.9621875 -16.04882812 81.234375 C-16.03703875 79.48954725 -16.01910324 77.744763 -16 76 C-16.66 75.67 -17.32 75.34 -18 75 C-17.34 75 -16.68 75 -16 75 C-16.00666183 74.36852554 -16.01332367 73.73705109 -16.02018738 73.08644104 C-16.08682265 66.48354205 -16.13191725 59.8807394 -16.16479492 53.27758789 C-16.1798334 50.81693641 -16.20026942 48.35631151 -16.22631836 45.89575195 C-16.26291856 42.34840308 -16.27977635 38.80141023 -16.29296875 35.25390625 C-16.31619453 33.61742882 -16.31619453 33.61742882 -16.33988953 31.94789124 C-16.34220031 21.33793853 -13.67622369 13.29713377 -7 5 C-1.96503497 0 -1.96503497 0 0 0 Z " fill="#4899C3" transform="translate(642,760)"/>
<path d="M0 0 C3.50580848 2.69834822 4.36032294 6.43286999 5.5625 10.5 C5.78083496 11.21760498 5.99916992 11.93520996 6.22412109 12.67456055 C7.6722697 17.55618752 8.74975919 22.40738512 9.53515625 27.44140625 C10.02311878 30.12725043 10.7619226 32.64142004 11.5625 35.25 C15.26657609 48.53229306 14.25807578 63.31374699 14 77 C13.98743164 77.70141113 13.97486328 78.40282227 13.96191406 79.12548828 C13.77999841 86.50420999 12.76437449 92.65774592 9.96484375 99.4921875 C9.06218592 101.83836695 8.55409398 103.96910369 8.125 106.4375 C6.9470632 112.43625223 3.87248138 117.66152045 1 123 C-1.01984473 119.97023291 -1.26868105 119.22601742 -1.40966797 115.79638672 C-1.44778595 114.93345001 -1.48590393 114.07051331 -1.525177 113.181427 C-1.5707222 111.75744095 -1.5707222 111.75744095 -1.6171875 110.3046875 C-1.65472137 109.29679169 -1.69225525 108.28889587 -1.73092651 107.25045776 C-2.1518269 94.60238319 -2.15118215 81.94804549 -2.13037109 69.29443359 C-2.12468566 65.82713334 -2.12806127 62.35991007 -2.13380814 58.89261246 C-2.15253268 45.58623526 -2.07314868 32.2904995 -1.5546875 18.9921875 C-1.51594513 17.99051544 -1.47720276 16.98884338 -1.43728638 15.95681763 C-1.20013503 10.58772277 -0.74756997 5.32241581 0 0 Z " fill="#43EE83" transform="translate(700,446)"/>
<path d="M0 0 C1.35568336 0.00333092 1.35568336 0.00333092 2.73875427 0.00672913 C3.75973709 0.00680466 4.78071991 0.00688019 5.8326416 0.00695801 C6.94304306 0.01211929 8.05344452 0.01728058 9.19749451 0.02259827 C10.89336952 0.02472069 10.89336952 0.02472069 12.62350464 0.02688599 C16.25105891 0.03250433 19.8785525 0.04505994 23.50608826 0.05775452 C25.95856133 0.06276715 28.41103536 0.06733047 30.86351013 0.07142639 C36.89022639 0.08247972 42.91689702 0.09975664 48.94358826 0.12025452 C48.94358826 6.06025452 48.94358826 12.00025452 48.94358826 18.12025452 C37.39358826 18.12025452 25.84358826 18.12025452 13.94358826 18.12025452 C14.14085675 24.52318917 14.14085675 24.52318917 14.39402771 30.92396545 C14.49656205 37.50997774 14.49656205 37.50997774 11.68186951 40.61634827 C10.77823669 41.11263733 9.87460388 41.60892639 8.94358826 42.12025452 C8.23976013 42.54951233 7.53593201 42.97877014 6.81077576 43.42103577 C6.15335388 43.75490295 5.49593201 44.08877014 4.81858826 44.43275452 C4.15601013 44.77951233 3.49343201 45.12627014 2.81077576 45.48353577 C0.94358826 46.12025452 0.94358826 46.12025452 -2.05641174 45.12025452 C-2.96257494 42.40176491 -3.18271474 40.82455196 -3.18580627 38.03187561 C-3.18895844 37.21447906 -3.1921106 36.39708252 -3.19535828 35.55491638 C-3.19333405 34.67671234 -3.19130981 33.7985083 -3.18922424 32.89369202 C-3.19018097 31.99027069 -3.1911377 31.08684937 -3.19212341 30.15605164 C-3.19280366 28.2479597 -3.19096019 26.33986544 -3.18678284 24.43177795 C-3.18141998 21.49975947 -3.18673945 18.56789331 -3.19313049 15.63587952 C-3.19246993 13.78431668 -3.19118921 11.93275393 -3.18922424 10.08119202 C-3.19124847 9.19893951 -3.19327271 8.31668701 -3.19535828 7.40769958 C-3.16728942 0.18521624 -3.16728942 0.18521624 0 0 Z " fill="#498BCE" transform="translate(545.0564117431641,786.8797454833984)"/>
<path d="M0 0 C17.16 0 34.32 0 52 0 C52 3.3 52 6.6 52 10 C39.13 10 26.26 10 13 10 C13.3537413 20.59890709 13.3537413 20.59890709 15 31 C17.91666667 32.25 17.91666667 32.25 21 33 C21.66 33.33 22.32 33.66 23 34 C25.40560273 34.15608023 27.78702772 34.25804458 30.1953125 34.31640625 C30.90275604 34.33718735 31.61019958 34.35796844 32.33908081 34.37937927 C34.60095425 34.44481078 36.86294462 34.50372974 39.125 34.5625 C40.65756422 34.60569133 42.19011657 34.64930582 43.72265625 34.69335938 C47.48165073 34.80048555 51.24076292 34.9017709 55 35 C55 37.97 55 40.94 55 44 C51.72125742 45.63937129 48.08895086 45.18453245 44.484375 45.203125 C43.21149628 45.21167511 43.21149628 45.21167511 41.91290283 45.22039795 C40.11398568 45.22985398 38.31505116 45.23638432 36.51611328 45.24023438 C33.7747533 45.24991261 31.0341518 45.28091841 28.29296875 45.3125 C26.54427528 45.3190329 24.79557645 45.32428224 23.046875 45.328125 C21.82312164 45.3466452 21.82312164 45.3466452 20.574646 45.36553955 C14.63539491 45.34250781 10.40211472 44.23536379 5.91796875 40.0625 C5.34691406 39.381875 4.77585937 38.70125 4.1875 38 C3.60355469 37.319375 3.01960937 36.63875 2.41796875 35.9375 C-0.40173095 32.08468719 -0.11652218 28.54793391 -0.09765625 23.92578125 C-0.09515869 22.67450439 -0.09266113 21.42322754 -0.09008789 20.1340332 C-0.08098389 18.54292725 -0.07187988 16.95182129 -0.0625 15.3125 C-0.041875 10.259375 -0.02125 5.20625 0 0 Z " fill="#06060E" transform="translate(560,865)"/>
<path d="M0 0 C1.26972656 -0.00257813 2.53945313 -0.00515625 3.84765625 -0.0078125 C6.9375 0.125 6.9375 0.125 7.9375 1.125 C8.08417874 3.11026467 8.16055425 5.1007516 8.2097168 7.09082031 C8.24191818 8.37015442 8.27411957 9.64948853 8.30729675 10.96759033 C8.40937297 16.09453849 8.48430987 21.22188644 8.53775311 26.34956741 C8.57852178 30.23464012 8.63834812 34.11715386 8.74682617 38.00097656 C8.8515428 41.76312395 8.90531333 45.52300224 8.92521095 49.28652191 C8.94099205 50.71069971 8.97387804 52.13480934 9.02536583 53.55814362 C9.38803248 64.10202174 7.03763614 70.08305414 0.28474426 77.83221436 C-2.0625 80.125 -2.0625 80.125 -4.0625 80.125 C-4.35125 80.764375 -4.64 81.40375 -4.9375 82.0625 C-6.0625 84.125 -6.0625 84.125 -8.0625 85.125 C-9.32714693 81.24402982 -9.19578957 77.36037045 -9.17602539 73.32714844 C-9.17617142 72.54627869 -9.17631744 71.76540894 -9.1764679 70.96087646 C-9.17577242 68.38534751 -9.16799712 65.80989129 -9.16015625 63.234375 C-9.15829077 61.44647257 -9.15686748 59.65856963 -9.15586853 57.8706665 C-9.15205357 53.16889022 -9.14223198 48.46714492 -9.13116455 43.76538086 C-9.12092849 38.96598734 -9.1163662 34.1665888 -9.11132812 29.3671875 C-9.10060881 19.9531114 -9.08354463 10.53905828 -9.0625 1.125 C-6.07566593 -0.36841703 -3.31850226 -0.00675178 0 0 Z " fill="#45C99F" transform="translate(806.0625,754.875)"/>
<path d="M0 0 C1.35158203 0.15275391 1.35158203 0.15275391 2.73046875 0.30859375 C3.41753906 0.39238281 4.10460937 0.47617187 4.8125 0.5625 C4.82708252 1.7177417 4.84166504 2.8729834 4.85668945 4.06323242 C4.91476822 8.35927912 4.9920005 12.65480694 5.07495117 16.95043945 C5.10815549 18.8077755 5.13620141 20.66521137 5.15893555 22.52270508 C5.19256442 25.19655798 5.24488374 27.86949993 5.30078125 30.54296875 C5.30717117 31.37023972 5.3135611 32.19751068 5.32014465 33.04985046 C5.43669567 37.64515061 5.67630122 40.94853879 8.8125 44.5625 C13.67811277 47.85484681 18.03846212 48.02892375 23.7109375 48.07421875 C24.96337753 48.10114555 24.96337753 48.10114555 26.24111938 48.12861633 C28.88986261 48.18249922 31.53842794 48.21654361 34.1875 48.25 C35.99091005 48.28319259 37.7942967 48.31768404 39.59765625 48.35351562 C44.00247534 48.43821275 48.4072437 48.50512834 52.8125 48.5625 C52.8125 51.5325 52.8125 54.5025 52.8125 57.5625 C50.08136896 58.47287701 48.43400859 58.69763618 45.61987305 58.72363281 C44.77857346 58.73324036 43.93727386 58.7428479 43.07048035 58.75274658 C41.71108086 58.7591214 41.71108086 58.7591214 40.32421875 58.765625 C39.3882637 58.77132507 38.45230865 58.77702515 37.48799133 58.78289795 C35.50673553 58.79234483 33.52546403 58.79888069 31.54418945 58.80273438 C28.52201714 58.81242937 25.50052803 58.84345138 22.47851562 58.875 C20.55208736 58.88153139 18.62565425 58.88678132 16.69921875 58.890625 C15.3489283 58.9091452 15.3489283 58.9091452 13.97135925 58.92803955 C7.41134735 58.90489867 3.22762689 57.69011178 -1.8125 53.25 C-7.52705635 46.78352834 -8.76508612 42.78697477 -8.578125 34.3515625 C-8.57246521 33.38342621 -8.56680542 32.41528992 -8.56097412 31.41781616 C-8.53867112 28.34053071 -8.48848556 25.2644306 -8.4375 22.1875 C-8.41742717 20.09506896 -8.39917777 18.00261957 -8.3828125 15.91015625 C-8.33882614 10.79381753 -8.26984019 5.6783594 -8.1875 0.5625 C-4.98734144 -0.50421952 -3.30205706 -0.38595472 0 0 Z " fill="#06060E" transform="translate(304.1875,851.4375)"/>
<path d="M0 0 C0.13517903 2.75164432 0.23415251 5.49664521 0.3125 8.25 C0.35439453 9.02730469 0.39628906 9.80460938 0.43945312 10.60546875 C0.48718299 12.83922633 0.46395597 14.81285894 0 17 C-2.39453125 19.296875 -2.39453125 19.296875 -5 21 C-6.75497506 23.82091235 -7.25927184 26.01304187 -7.31884766 29.30957031 C-7.33871735 30.15013977 -7.35858704 30.99070923 -7.37905884 31.85675049 C-7.39638565 33.20383087 -7.39638565 33.20383087 -7.4140625 34.578125 C-7.43342865 35.5046991 -7.4527948 36.43127319 -7.4727478 37.38592529 C-7.53244767 40.34052371 -7.57889068 43.29516129 -7.625 46.25 C-7.6631886 48.25522517 -7.70224085 50.26043409 -7.7421875 52.265625 C-7.8381414 57.17695111 -7.92220803 62.088354 -8 67 C-10.81256281 67.02684312 -13.62487241 67.04676188 -16.4375 67.0625 C-17.23994141 67.07087891 -18.04238281 67.07925781 -18.86914062 67.08789062 C-20.91295221 67.0965143 -22.95683902 67.0522815 -25 67 C-27.0928224 64.9071776 -26.18853541 60.3577661 -26.203125 57.46875 C-26.20882507 56.60366821 -26.21452515 55.73858643 -26.22039795 54.84729004 C-26.22986908 53.00790638 -26.23639027 51.16850559 -26.24023438 49.32910156 C-26.24986399 46.53940143 -26.28083459 43.75046209 -26.3125 40.9609375 C-26.31903761 39.17187936 -26.32428509 37.38281596 -26.328125 35.59375 C-26.3404718 34.76838745 -26.3528186 33.9430249 -26.36553955 33.09265137 C-26.34348561 27.23636763 -25.14128455 22.43439222 -23 17 C-22.608125 15.989375 -22.21625 14.97875 -21.8125 13.9375 C-17.22623812 6.50459281 -9.33320349 -2.40087517 0 0 Z " fill="#42D796" transform="translate(853,758)"/>
<path d="M0 0 C1.64869317 0.03780073 3.29594032 0.15470302 4.9375 0.3125 C5.83339844 0.39113281 6.72929688 0.46976563 7.65234375 0.55078125 C10 1 10 1 12 3 C12.23046875 5.12890625 12.23046875 5.12890625 12.1875 7.5625 C12.18105469 8.36816406 12.17460938 9.17382812 12.16796875 10.00390625 C12 12 12 12 11 13 C1.40436468 14.45587333 -8.46346926 14.28923686 -18.14453125 14.4296875 C-19.34207031 14.460625 -20.53960938 14.4915625 -21.7734375 14.5234375 C-22.85028809 14.54325684 -23.92713867 14.56307617 -25.03662109 14.58349609 C-29.05972337 15.14894448 -31.90134243 16.55176957 -34.375 19.8125 C-35.46157704 23.61551964 -34.63645563 26.68965018 -32.9375 30.1875 C-30.06475872 32.87490313 -26.7091545 33.83703469 -23 35 C-22.9729957 36.45823212 -22.95360213 37.91660675 -22.9375 39.375 C-22.92589844 40.18710937 -22.91429687 40.99921875 -22.90234375 41.8359375 C-23 44 -23 44 -24 46 C-30.66209901 46.27192241 -35.65972543 45.65195852 -41.1875 41.75 C-46.97695462 36.08919993 -48.92966942 31.51314047 -49.25 23.625 C-49.16150492 16.96574559 -46.53432241 11.82685934 -42 7 C-41.34 7 -40.68 7 -40 7 C-40 6.34 -40 5.68 -40 5 C-39.34 4.67 -38.68 4.34 -38 4 C-38.33 3.34 -38.66 2.68 -39 2 C-37.28115601 1.96241577 -37.28115601 1.96241577 -35.52758789 1.92407227 C-31.29146402 1.83016894 -27.05551072 1.72990725 -22.81958008 1.62768555 C-20.98335753 1.5842718 -19.14709292 1.54260161 -17.31079102 1.50268555 C-14.67711689 1.44513831 -12.04365579 1.38140002 -9.41015625 1.31640625 C-8.58411392 1.29969376 -7.75807159 1.28298126 -6.90699768 1.26576233 C-3.14523247 1.52192567 -3.14523247 1.52192567 0 0 Z " fill="#05050D" transform="translate(980,833)"/>
<path d="M0 0 C6.96541522 -0.50453712 11.31356464 -0.20796217 17 4 C19.25 6.4375 19.25 6.4375 21 9 C21.556875 9.70125 22.11375 10.4025 22.6875 11.125 C25.26146643 16.76321219 25.89355825 23.31237941 23.9375 29.25 C21.40934403 34.89776127 17.16893261 39.63537248 12 43 C9.78610229 43.36749268 9.78610229 43.36749268 7.35498047 43.35644531 C5.98368484 43.36094696 5.98368484 43.36094696 4.58468628 43.36553955 C3.60541168 43.35319275 2.62613708 43.34084595 1.6171875 43.328125 C0.60657257 43.32625183 -0.40404236 43.32437866 -1.44528198 43.32244873 C-3.57862657 43.31573265 -5.71195893 43.301827 -7.84521484 43.28125 C-11.11958187 43.25005162 -14.39346772 43.24027412 -17.66796875 43.234375 C-19.73958923 43.22520668 -21.8112048 43.21483145 -23.8828125 43.203125 C-24.86613556 43.19887512 -25.84945862 43.19462524 -26.86257935 43.19024658 C-28.22441849 43.17583527 -28.22441849 43.17583527 -29.61376953 43.16113281 C-30.41444855 43.15430481 -31.21512756 43.14747681 -32.04006958 43.14044189 C-34 43 -34 43 -36 42 C-36 39.03 -36 36.06 -36 33 C-34.27499268 32.98598145 -34.27499268 32.98598145 -32.51513672 32.97167969 C-28.23203368 32.93168616 -23.94964187 32.86590165 -19.66699219 32.79248047 C-17.81649947 32.76432502 -15.96588771 32.74308354 -14.11523438 32.72900391 C-11.4486012 32.7074988 -8.78339116 32.6608114 -6.1171875 32.609375 C-4.88402298 32.60753204 -4.88402298 32.60753204 -3.62594604 32.60565186 C1.68949403 32.4713373 4.78175722 31.52488908 9 28 C10.38868516 25.89960669 10.38868516 25.89960669 11 24 C11.66 24 12.32 24 13 24 C12.72285156 23.45730469 12.44570313 22.91460938 12.16015625 22.35546875 C11.61681641 21.28232422 11.61681641 21.28232422 11.0625 20.1875 C10.52302734 19.12595703 10.52302734 19.12595703 9.97265625 18.04296875 C9 16 9 16 8 13 C6.865625 12.855625 5.73125 12.71125 4.5625 12.5625 C1 12 1 12 0 11 C-0.07226502 9.14712498 -0.0838122 7.29166122 -0.0625 5.4375 C-0.05347656 4.42558594 -0.04445313 3.41367187 -0.03515625 2.37109375 C-0.02355469 1.58863281 -0.01195312 0.80617188 0 0 Z " fill="#06070E" transform="translate(967,867)"/>
<path d="M0 0 C1.16080078 -0.00064453 2.32160156 -0.00128906 3.51757812 -0.00195312 C5.30131836 0.02801758 5.30131836 0.02801758 7.12109375 0.05859375 C8.31412109 0.05150391 9.50714844 0.04441406 10.73632812 0.03710938 C17.10877117 0.08315816 21.94655954 0.40278457 27.55859375 3.49609375 C28.21859375 3.82609375 28.87859375 4.15609375 29.55859375 4.49609375 C29.55859375 27.26609375 29.55859375 50.03609375 29.55859375 73.49609375 C29.22859375 73.49609375 28.89859375 73.49609375 28.55859375 73.49609375 C28.5445752 71.60503906 28.5445752 71.60503906 28.53027344 69.67578125 C28.49022003 64.97149097 28.42441874 60.26784412 28.35107422 55.56396484 C28.3229534 53.53312483 28.30169489 51.50217718 28.28759766 49.47119141 C28.26604477 46.5414352 28.21933153 43.6129611 28.16796875 40.68359375 C28.16674011 39.78431152 28.16551147 38.8850293 28.16424561 37.95849609 C28.02818136 32.02225916 26.92709739 27.4547405 23.55859375 22.49609375 C18.61044346 17.82816658 13.94475029 17.91235501 7.49609375 18.05859375 C6.61115234 18.05150391 5.72621094 18.04441406 4.81445312 18.03710938 C-0.07938904 18.08483627 -3.48267361 18.31838767 -7.44140625 21.49609375 C-13.08444232 27.45263182 -12.61563037 33.60822043 -12.7578125 41.390625 C-12.7785936 42.33798019 -12.79937469 43.28533539 -12.82078552 44.26139832 C-12.88598403 47.27705885 -12.94502757 50.29280385 -13.00390625 53.30859375 C-13.04711973 55.35743049 -13.09073491 57.40625879 -13.13476562 59.45507812 C-13.24163491 64.46866422 -13.34298556 69.48233498 -13.44140625 74.49609375 C-13.77140625 74.49609375 -14.10140625 74.49609375 -14.44140625 74.49609375 C-14.44140625 51.39609375 -14.44140625 28.29609375 -14.44140625 4.49609375 C-5.42995616 -0.00963129 -5.42995616 -0.00963129 0 0 Z " fill="#49A7BA" transform="translate(656.44140625,755.50390625)"/>
<path d="M0 0 C7.24487049 -0.02464113 14.48971682 -0.0428318 21.73461914 -0.05493164 C24.20142033 -0.05997356 26.66821852 -0.06680691 29.13500977 -0.07543945 C32.67204529 -0.08751125 36.20904145 -0.09322956 39.74609375 -0.09765625 C40.85649521 -0.10281754 41.96689667 -0.10797882 43.11094666 -0.11329651 C44.64242088 -0.11340981 44.64242088 -0.11340981 46.20483398 -0.11352539 C47.10862289 -0.115746 48.0124118 -0.11796661 48.94358826 -0.12025452 C51 0 51 0 52 1 C52.08631874 2.34267413 52.10706473 3.68974322 52.09765625 5.03515625 C52.09443359 5.84404297 52.09121094 6.65292969 52.08789062 7.48632812 C52.07532227 8.7615332 52.07532227 8.7615332 52.0625 10.0625 C52.05798828 10.91650391 52.05347656 11.77050781 52.04882812 12.65039062 C52.03700373 14.76695663 52.01906769 16.88348685 52 19 C51.2756929 18.83923477 50.5513858 18.67846954 49.80513 18.51283264 C47.18268707 18.03339877 44.77853953 17.8448781 42.11791992 17.79467773 C41.17732224 17.77473251 40.23672455 17.75478729 39.2676239 17.73423767 C38.2653627 17.71752518 37.2631015 17.70081268 36.23046875 17.68359375 C35.19432938 17.66281265 34.15819 17.64203156 33.09065247 17.62062073 C29.78966735 17.5553787 26.48860451 17.49635821 23.1875 17.4375 C20.94595559 17.39429068 18.70441897 17.35067562 16.46289062 17.30664062 C10.97533952 17.19972329 5.48771045 17.09838462 0 17 C0 11.39 0 5.78 0 0 Z " fill="#498BCE" transform="translate(542,756)"/>
<path d="M0 0 C0.33 0.66 0.66 1.32 1 2 C13.54 2 26.08 2 39 2 C39 2.66 39 3.32 39 4 C39.99 4.020625 40.98 4.04125 42 4.0625 C47.19174143 4.77094537 50.51103365 8.32655957 54 12 C56 15 56 15 56 19 C56.66 19 57.32 19 58 19 C58 21.64 58 24.28 58 27 C53.71 27 49.42 27 45 27 C44.12109375 24.72135417 43.2421875 22.44270833 42.36328125 20.1640625 C40.54503598 17.27779351 39.25698887 16.99019008 36 16 C33.30088229 15.79151643 30.69536292 15.67583714 27.99609375 15.65625 C27.23579361 15.6416272 26.47549347 15.62700439 25.69215393 15.61193848 C22.45517276 15.5499513 19.21800727 15.51008307 15.98071289 15.46826172 C13.6106397 15.43447491 11.2409636 15.38938698 8.87109375 15.34375 C8.14184189 15.3384729 7.41259003 15.3331958 6.66123962 15.32775879 C2.95928979 15.2551881 0.14851444 15.04294089 -3 13 C-3.08121924 11.39667209 -3.13929134 9.79215974 -3.1875 8.1875 C-3.22230469 7.29417969 -3.25710938 6.40085937 -3.29296875 5.48046875 C-2.95081002 2.58352485 -2.24606427 1.77444972 0 0 Z " fill="#05050D" transform="translate(299,832)"/>
<path d="M0 0 C0 14.85 0 29.7 0 45 C-6.27 45 -12.54 45 -19 45 C-19 30.48 -19 15.96 -19 1 C-15.37 1 -11.74 1 -8 1 C-4 0 -4 0 0 0 Z " fill="#499AC4" transform="translate(651,566)"/>
<path d="M0 0 C0.33 0 0.66 0 1 0 C1.12658532 7.06564241 1.21426063 14.13099346 1.2746582 21.19750977 C1.29983101 23.60224332 1.33397182 26.00690015 1.37719727 28.41137695 C1.43772467 31.86428733 1.46618244 35.31618795 1.48828125 38.76953125 C1.51408768 39.84773636 1.5398941 40.92594147 1.56648254 42.03681946 C1.56751797 44.78076176 1.52931293 47.30770009 1 50 C-1.30786133 52.09643555 -1.30786133 52.09643555 -4 53 C-5.175625 53.556875 -6.35125 54.11375 -7.5625 54.6875 C-11 56 -11 56 -15 56 C-15.25407499 49.7020513 -15.42886704 43.40542634 -15.54931641 37.10351562 C-15.59953209 34.96141184 -15.66772347 32.81964961 -15.75439453 30.67871094 C-16.45989419 12.80051968 -16.45989419 12.80051968 -12.8371582 8.33251953 C-10.24351528 6.80373955 -7.85480837 5.91399115 -5 5 C-3.26363656 3.65323748 -3.26363656 3.65323748 -1.9375 2.125 C-1.298125 1.42375 -0.65875 0.7225 0 0 Z " fill="#48BEA9" transform="translate(666,554)"/>
<path d="M0 0 C1.02075623 0.00007553 2.04151245 0.00015106 3.09320068 0.00022888 C4.18811829 0.00539017 5.28303589 0.01055145 6.41113281 0.01586914 C8.10064056 0.01799156 8.10064056 0.01799156 9.82427979 0.02015686 C13.42096617 0.0257534 17.01759025 0.03830529 20.61425781 0.05102539 C23.053059 0.05604084 25.49186116 0.06060367 27.93066406 0.06469727 C33.90854989 0.07572169 39.8863994 0.09245641 45.86425781 0.11352539 C45.86425781 0.77352539 45.86425781 1.43352539 45.86425781 2.11352539 C46.52425781 2.11352539 47.18425781 2.11352539 47.86425781 2.11352539 C47.86425781 5.74352539 47.86425781 9.37352539 47.86425781 13.11352539 C29.71425781 13.11352539 11.56425781 13.11352539 -7.13574219 13.11352539 C-7.13574219 9.48352539 -7.13574219 5.85352539 -7.13574219 2.11352539 C-7.79574219 1.78352539 -8.45574219 1.45352539 -9.13574219 1.11352539 C-6.02015929 0.19889132 -3.24178591 -0.00802422 0 0 Z " fill="#05050D" transform="translate(567.1357421875,833.886474609375)"/>
<path d="M0 0 C5.64167969 -0.02470254 11.28332795 -0.04286121 16.92504883 -0.05493164 C18.84465076 -0.05996315 20.76424886 -0.06678898 22.68383789 -0.07543945 C25.44157864 -0.08755669 28.19926876 -0.09324011 30.95703125 -0.09765625 C31.81649857 -0.10281754 32.67596588 -0.10797882 33.56147766 -0.11329651 C34.36208115 -0.11337204 35.16268463 -0.11344757 35.98754883 -0.11352539 C36.6914827 -0.115746 37.39541656 -0.11796661 38.12068176 -0.12025452 C40 0 40 0 43 1 C43.74258797 4.62011635 44.05815773 8.03966067 44.03125 11.72265625 C44.02673828 12.52582275 44.02222656 13.32898926 44.01757812 14.15649414 C44.01177734 14.76485107 44.00597656 15.37320801 44 16 C37.91323875 16.21670661 31.82628576 16.41363618 25.73828125 16.59204102 C23.66616601 16.65557592 21.59421079 16.72456883 19.52246094 16.79907227 C16.54907715 16.9050613 13.57567528 16.9915809 10.6015625 17.07421875 C9.67131256 17.11157639 8.74106262 17.14893402 7.78262329 17.18742371 C6.92188202 17.20767105 6.06114075 17.2279184 5.17431641 17.2487793 C4.41486725 17.27320602 3.65541809 17.29763275 2.87295532 17.32279968 C2.25488007 17.21627579 1.63680481 17.10975189 1 17 C-1.32613583 13.51079626 -1.24247293 12.05047454 -1.1875 7.9375 C-1.18105469 6.87402344 -1.17460937 5.81054688 -1.16796875 4.71484375 C-1 2 -1 2 0 0 Z " fill="#4861EE" transform="translate(375,837)"/>
<path d="M0 0 C13.53 0 27.06 0 41 0 C41 5.61 41 11.22 41 17 C27.47 17 13.94 17 0 17 C0 11.39 0 5.78 0 0 Z " fill="#467DDA" transform="translate(494,756)"/>
<path d="M0 0 C3.54712718 1.77356359 4.13632612 6.16027555 5.48828125 9.7265625 C6.87725789 13.13722219 6.87725789 13.13722219 9.56396484 15.93725586 C13.19287492 20.96719797 12.62569383 26.29669248 12.48828125 32.27734375 C12.47766914 34.02707237 12.47766914 34.02707237 12.46684265 35.81214905 C12.4389555 39.52126412 12.3762226 43.22884465 12.3125 46.9375 C12.28741002 49.45896251 12.26459808 51.98044878 12.24414062 54.50195312 C12.1891472 60.66848832 12.10557579 66.8341345 12 73 C10.55962331 72.06692579 9.12281015 71.12834923 7.6875 70.1875 C6.88699219 69.66542969 6.08648438 69.14335938 5.26171875 68.60546875 C1.30815601 65.79905375 1.30815601 65.79905375 0 64 C-0.36076355 61.20954895 -0.36076355 61.20954895 -0.34057617 57.78442383 C-0.34034958 56.5033223 -0.34012299 55.22222076 -0.33988953 53.90229797 C-0.32456957 52.50387219 -0.30892158 51.10544996 -0.29296875 49.70703125 C-0.28737268 48.27642766 -0.28310263 46.84581831 -0.28010559 45.41520691 C-0.26865756 41.65198868 -0.23919115 37.88911844 -0.20599365 34.1260376 C-0.17529163 30.28524483 -0.1616 26.44439577 -0.14648438 22.60351562 C-0.11432106 15.06885186 -0.06312566 7.53447471 0 0 Z " fill="#476FE3" transform="translate(600,530)"/>
<path d="M0 0 C5.51756476 -0.0493521 11.03500171 -0.08569662 16.55273438 -0.10986328 C18.43068682 -0.11993534 20.30862353 -0.13359362 22.18652344 -0.15087891 C24.8822009 -0.17507453 27.57767146 -0.18647083 30.2734375 -0.1953125 C31.11619232 -0.20563507 31.95894714 -0.21595764 32.82723999 -0.22659302 C34.88621247 -0.22699144 36.94467935 -0.12257588 39 0 C41 2 41 2 41.23046875 5.00390625 C41.21628906 6.17824219 41.20210937 7.35257813 41.1875 8.5625 C41.18105469 9.73941406 41.17460938 10.91632812 41.16796875 12.12890625 C41 15 41 15 40 16 C37.28447723 16.12579806 34.59575573 16.18865406 31.87890625 16.203125 C31.06381088 16.20882507 30.24871552 16.21452515 29.40892029 16.22039795 C27.68139958 16.22986127 25.95386071 16.2363872 24.22631836 16.24023438 C21.57699274 16.24994687 18.92844042 16.28095964 16.27929688 16.3125 C14.60417129 16.31902903 12.92904014 16.32427989 11.25390625 16.328125 C10.45803604 16.3404718 9.66216583 16.3528186 8.84217834 16.36553955 C6.60766602 16.35644531 6.60766602 16.35644531 3 16 C0.65229357 12.47844036 0.62330386 10.49228157 0.375 6.3125 C0.30023438 5.13300781 0.22546875 3.95351563 0.1484375 2.73828125 C0.09945313 1.83464844 0.05046875 0.93101562 0 0 Z " fill="#457CD9" transform="translate(494,837)"/>
<path d="M0 0 C0.33 0 0.66 0 1 0 C1.18573027 7.58851328 1.32769078 15.17678978 1.41449738 22.76706123 C1.45617265 26.2921412 1.51264557 29.81566153 1.60351562 33.33984375 C1.70744197 37.39598129 1.74595066 41.45049306 1.78125 45.5078125 C1.82254028 46.76739777 1.86383057 48.02698303 1.90637207 49.32473755 C1.91075048 57.8806593 1.91075048 57.8806593 -0.76391602 61.16790771 C-5.70435398 65 -5.70435398 65 -9 65 C-9.17844028 57.92030806 -9.30047025 50.8412021 -9.38452148 43.75976562 C-9.41958275 41.35427175 -9.46724663 38.94892553 -9.52807617 36.54394531 C-9.61362281 33.07319602 -9.6528337 29.60442884 -9.68359375 26.1328125 C-9.71972275 25.06886261 -9.75585175 24.00491272 -9.79307556 22.90872192 C-9.79678332 15.75359036 -8.18842376 11.73612557 -3.70252991 6.15158081 C-2.12891528 4.16291733 -1.0393508 2.30241653 0 0 Z " fill="#46CAA0" transform="translate(676,539)"/>
<path d="M0 0 C9.24 0 18.48 0 28 0 C28.020625 2.619375 28.04125 5.23875 28.0625 7.9375 C28.071604 8.7637085 28.08070801 9.58991699 28.09008789 10.44116211 C28.09723945 12.29433759 28.0502852 14.14749308 28 16 C27 17 27 17 24.40795898 17.11352539 C23.28204346 17.10828857 22.15612793 17.10305176 20.99609375 17.09765625 C19.78115234 17.09443359 18.56621094 17.09121094 17.31445312 17.08789062 C16.03505859 17.07951172 14.75566406 17.07113281 13.4375 17.0625 C12.15423828 17.05798828 10.87097656 17.05347656 9.54882812 17.04882812 C6.3658658 17.03699555 3.18292726 17.01905944 0 17 C0 11.39 0 5.78 0 0 Z " fill="#46CAA0" transform="translate(759,756)"/>
<path d="M0 0 C3.72433382 1.2125738 7.37802806 2.50859979 11 4 C11.02469854 9.92651057 11.04285931 15.85299125 11.05493164 21.77954102 C11.05996382 23.79614789 11.06679014 25.8127511 11.07543945 27.8293457 C11.08755373 30.72608339 11.09323943 33.62277288 11.09765625 36.51953125 C11.10281754 37.42274612 11.10797882 38.325961 11.11329651 39.25654602 C11.11337204 40.09719101 11.11344757 40.937836 11.11352539 41.80395508 C11.115746 42.54341873 11.11796661 43.28288239 11.12025452 44.04475403 C11 46 11 46 10 49 C7.03 48.34 4.06 47.68 1 47 C-0.27096493 42.12283698 -0.12655874 37.32429344 -0.09765625 32.32421875 C-0.0962413 31.3990596 -0.09482635 30.47390045 -0.09336853 29.52070618 C-0.08778715 26.57627073 -0.07523805 23.63191233 -0.0625 20.6875 C-0.05748259 18.68685006 -0.05292011 16.68619892 -0.04882812 14.68554688 C-0.03782381 9.79033506 -0.02057198 4.89518058 0 0 Z " fill="#498BCE" transform="translate(622,562)"/>
<path d="M0 0 C3.95099928 -0.0246985 7.90196874 -0.04285923 11.85302734 -0.05493164 C13.85906551 -0.06244036 15.86508202 -0.0751447 17.87109375 -0.08789062 C19.75634766 -0.09272461 19.75634766 -0.09272461 21.6796875 -0.09765625 C23.42354736 -0.10551147 23.42354736 -0.10551147 25.20263672 -0.11352539 C28 0 28 0 30 1 C30.31341426 3.55757859 30.51228239 5.99643821 30.625 8.5625 C30.74875 11.016875 30.8725 13.47125 31 16 C22.75 16 14.5 16 6 16 C4 10.66666667 2 5.33333333 0 0 Z " fill="#47BDA8" transform="translate(729,837)"/>
<path d="M0 0 C0 14.85 0 29.7 0 45 C-2.97 45 -5.94 45 -9 45 C-9 30.81 -9 16.62 -9 2 C-4 0 -4 0 0 0 Z " fill="#49A7BA" transform="translate(651,566)"/>
<path d="M0 0 C4.29 0 8.58 0 13 0 C13 8.91 13 17.82 13 27 C10.63386544 28.18306728 9.13219264 28.13354608 6.5 28.125 C5.7059375 28.12757813 4.911875 28.13015625 4.09375 28.1328125 C2 28 2 28 0 27 C0 18.09 0 9.18 0 0 Z " fill="#06060E" transform="translate(426,882)"/>
<path d="M0 0 C2.41696872 -0.05411124 4.83271787 -0.09372278 7.25 -0.125 C7.93191406 -0.14175781 8.61382813 -0.15851562 9.31640625 -0.17578125 C16.04010954 -0.24105992 16.04010954 -0.24105992 19 2 C21.58612088 5.48069099 21.20283189 9.04707807 21.125 13.25 C21.10695313 14.51328125 21.08890625 15.7765625 21.0703125 17.078125 C21.04710937 18.04234375 21.02390625 19.0065625 21 20 C16.71 20 12.42 20 8 20 C8 17.36 8 14.72 8 12 C5.69 12 3.38 12 1 12 C0.67 8.04 0.34 4.08 0 0 Z " fill="#05050C" transform="translate(844,835)"/>
<path d="M0 0 C0.07589036 6.51441001 0.12853202 13.0287066 0.16479492 19.54345703 C0.17990753 21.76094828 0.20039826 23.97840953 0.22631836 26.19580078 C0.26259293 29.37800489 0.27970139 32.55981482 0.29296875 35.7421875 C0.30845261 36.73805878 0.32393646 37.73393005 0.33988953 38.75997925 C0.34011612 39.68078278 0.34034271 40.6015863 0.34057617 41.55029297 C0.34723801 42.3630368 0.35389984 43.17578064 0.36076355 44.01315308 C0.24171158 44.66881256 0.12265961 45.32447205 0 46 C-3 48 -3 48 -7 48 C-7.12662639 41.64645635 -7.21427701 35.29323711 -7.2746582 28.9387207 C-7.29982499 26.77648764 -7.33396158 24.61433982 -7.37719727 22.45239258 C-7.43775296 19.34695428 -7.46618787 16.24263903 -7.48828125 13.13671875 C-7.52699089 11.68346443 -7.52699089 11.68346443 -7.56648254 10.20085144 C-7.56753091 7.70049323 -7.53239971 5.44302978 -7 3 C-4.54695308 0.82429949 -3.27102076 0 0 0 Z " fill="#47B3B1" transform="translate(658,562)"/>
<path d="M0 0 C0.35644531 2.23071289 0.35644531 2.23071289 0.328125 4.97265625 C0.32296875 5.95427734 0.3178125 6.93589844 0.3125 7.94726562 C0.291875 8.97529297 0.27125 10.00332031 0.25 11.0625 C0.24484375 12.09439453 0.2396875 13.12628906 0.234375 14.18945312 C0.15383098 21.84616902 0.15383098 21.84616902 -1 23 C-5.00220653 23.14355117 -8.99441683 23.04216403 -13 23 C-13 15.41 -13 7.82 -13 0 C-13.66 -0.33 -14.32 -0.66 -15 -1 C-9.92717163 -2.69094279 -4.49272587 -2.99515058 0 0 Z " fill="#05050D" transform="translate(488,836)"/>
<path d="M0 0 C2.62506802 -0.02690844 5.24986173 -0.04679404 7.875 -0.0625 C8.62136719 -0.07087891 9.36773438 -0.07925781 10.13671875 -0.08789062 C15.7734375 -0.11328125 15.7734375 -0.11328125 18 1 C18 6.61 18 12.22 18 18 C14.0709375 18.0309375 14.0709375 18.0309375 10.0625 18.0625 C9.2362915 18.071604 8.41008301 18.08070801 7.55883789 18.09008789 C5.70566241 18.09723945 3.85250692 18.0502852 2 18 C-0.11925604 15.88074396 0.58168983 11.3803907 0.4375 8.4375 C0.39431641 7.63119141 0.35113281 6.82488281 0.30664062 5.99414062 C0.20024738 3.99631195 0.09959112 1.9981793 0 0 Z " fill="#46CAA0" transform="translate(796,723)"/>
<path d="M0 0 C0.99 0.33 1.98 0.66 3 1 C3.06947395 9.5534877 3.12279776 18.10685775 3.15543652 26.66055775 C3.17110056 30.63228627 3.19235199 34.60382193 3.22631836 38.57543945 C3.25888596 42.40743089 3.27684745 46.23923668 3.28463173 50.07135582 C3.29017996 51.53422659 3.30101425 52.99708707 3.31719017 54.45987892 C3.33893079 56.50708696 3.34196847 58.5535254 3.34057617 60.60083008 C3.34723801 61.76665115 3.35389984 62.93247223 3.36076355 64.13362122 C3 67 3 67 0 70 C0 46.9 0 23.8 0 0 Z " fill="#42D796" transform="translate(811,755)"/>
<path d="M0 0 C17.16 0 34.32 0 52 0 C52 3.3 52 6.6 52 10 C40.12 10 28.24 10 16 10 C16 9.67 16 9.34 16 9 C17.23302856 8.970271 17.23302856 8.970271 18.4909668 8.93994141 C22.22346126 8.84455397 25.9554067 8.73492911 29.6875 8.625 C31.62786133 8.57859375 31.62786133 8.57859375 33.60742188 8.53125 C34.85458984 8.49257813 36.10175781 8.45390625 37.38671875 8.4140625 C39.10701294 8.36693115 39.10701294 8.36693115 40.86206055 8.31884766 C43.94327872 8.00576348 46.2082114 7.30329197 49 6 C48.505 4.515 48.505 4.515 48 3 C43.97180656 1.49549687 39.64554947 1.85646634 35.40234375 1.8671875 C34.57166885 1.86623077 33.74099396 1.86527405 32.88514709 1.86428833 C31.13265914 1.86360901 29.38016864 1.86544599 27.62768555 1.86962891 C24.94379033 1.87498744 22.26006194 1.86967205 19.57617188 1.86328125 C17.87239546 1.86394194 16.16861916 1.86522292 14.46484375 1.8671875 C13.66167221 1.86516327 12.85850067 1.86313904 12.0309906 1.86105347 C8.76306681 1.87483131 6.12221234 1.95926255 3 3 C1.49638 7.51085999 1.77466039 11.96195268 1.75 16.6875 C1.729375 17.65623047 1.70875 18.62496094 1.6875 19.62304688 C1.64524558 27.43483364 2.61869258 34.05993876 8.1875 40 C8.98220703 40.86625 8.98220703 40.86625 9.79296875 41.75 C10.19128906 42.1625 10.58960938 42.575 11 43 C7.88036045 41.63981009 5.99165178 40.16739866 3.8125 37.5625 C3.30332031 36.96566406 2.79414062 36.36882813 2.26953125 35.75390625 C-0.44576996 32.00261319 -0.11589984 28.39546197 -0.09765625 23.92578125 C-0.09515869 22.67450439 -0.09266113 21.42322754 -0.09008789 20.1340332 C-0.08098389 18.54292725 -0.07187988 16.95182129 -0.0625 15.3125 C-0.041875 10.259375 -0.02125 5.20625 0 0 Z " fill="#000002" transform="translate(560,865)"/>
<path d="M0 0 C0.33 0 0.66 0 1 0 C1 12.21 1 24.42 1 37 C-4.10074791 31.89925209 -6.2243567 25.68714385 -6.5 18.5 C-6.24491563 11.59310021 -3.80146346 5.70219519 0 0 Z " fill="#47B3B1" transform="translate(717,766)"/>
<path d="M0 0 C0.99 0 1.98 0 3 0 C3 15.18 3 30.36 3 46 C2.01 45.67 1.02 45.34 0 45 C-0.9061632 42.2815104 -1.12630299 40.70429744 -1.12939453 37.91162109 C-1.13254669 37.09422455 -1.13569885 36.276828 -1.13894653 35.43466187 C-1.1369223 34.55645782 -1.13489807 33.67825378 -1.1328125 32.7734375 C-1.13376923 31.87001617 -1.13472595 30.96659485 -1.13571167 30.03579712 C-1.13639192 28.12770518 -1.13454845 26.21961092 -1.13037109 24.31152344 C-1.12500824 21.37950495 -1.13032771 18.44763879 -1.13671875 15.515625 C-1.13605819 13.66406216 -1.13477747 11.81249942 -1.1328125 9.9609375 C-1.13483673 9.078685 -1.13686096 8.1964325 -1.13894653 7.28744507 C-1.1149583 1.1149583 -1.1149583 1.1149583 0 0 Z " fill="#467DDA" transform="translate(543,787)"/>
<path d="M0 0 C0.33 0 0.66 0 1 0 C1 11.55 1 23.1 1 35 C-4.86222708 27.67221615 -5.85939401 21.15831828 -5 12 C-3.95440472 7.5073132 -2.56125967 3.84188951 0 0 Z " fill="#4753F9" transform="translate(380,767)"/>
<path d="M0 0 C0.33 0 0.66 0 1 0 C1.309375 1.134375 1.61875 2.26875 1.9375 3.4375 C2.62924531 6.78775099 2.62924531 6.78775099 4 8 C5.46237027 8.10860254 6.92989285 8.14902169 8.39624023 8.16113281 C9.79790688 8.17554413 9.79790688 8.17554413 11.22789001 8.19024658 C12.24452225 8.19449646 13.26115448 8.19874634 14.30859375 8.203125 C15.86417747 8.21167511 15.86417747 8.21167511 17.45118713 8.22039795 C19.64949518 8.22986348 21.84781752 8.23638807 24.04614258 8.24023438 C27.41968348 8.2499487 30.79261767 8.2809614 34.16601562 8.3125 C36.29687136 8.31902872 38.42773148 8.3242797 40.55859375 8.328125 C41.57320175 8.3404718 42.58780975 8.3528186 43.63316345 8.36553955 C45.03955833 8.3610379 45.03955833 8.3610379 46.47436523 8.35644531 C47.71560402 8.36191376 47.71560402 8.36191376 48.98191833 8.36749268 C49.98086876 8.1855838 49.98086876 8.1855838 51 8 C52.9451 5.08235 53.45276317 3.37462715 54 0 C54.33 0 54.66 0 55 0 C55 3.63 55 7.26 55 11 C36.85 11 18.7 11 0 11 C0 7.37 0 3.74 0 0 Z " fill="#000002" transform="translate(560,836)"/>
<path d="M0 0 C0.99 0 1.98 0 3 0 C8.42447167 5.88025371 9.66455282 11.99044419 9.52734375 19.765625 C9.47707031 20.87421875 9.42679688 21.9828125 9.375 23.125 C9.34792969 24.27226562 9.32085938 25.41953125 9.29296875 26.6015625 C9.22293106 29.40306993 9.12477825 32.20048792 9 35 C8.34 35 7.68 35 7 35 C6.75765625 33.79085937 6.5153125 32.58171875 6.265625 31.3359375 C4.41962749 22.27672098 2.40773569 13.41795349 -0.36328125 4.58984375 C-1 2 -1 2 0 0 Z " fill="#42D696" transform="translate(677,402)"/>
<path d="M0 0 C0.66 0 1.32 0 2 0 C0.85403073 2.81283367 -0.11146483 4.09195849 -2.5 6.0625 C-6.14641981 10.34704327 -6.80623106 14.44777472 -7 20 C-6.38174362 26.08540926 -4.50276355 29.97954116 0.0625 34.0625 C4.25897143 37.38372972 6.57337026 38.22610957 12 38 C12.99 37.505 12.99 37.505 14 37 C14 35.02 14 33.04 14 31 C12.35 30.34 10.7 29.68 9 29 C12.62326739 27.7922442 13.64146369 28.45688872 17 30 C17.0270043 31.45823212 17.04639787 32.91660675 17.0625 34.375 C17.07410156 35.18710937 17.08570313 35.99921875 17.09765625 36.8359375 C17 39 17 39 16 41 C9.33790099 41.27192241 4.34027457 40.65195852 -1.1875 36.75 C-6.97695462 31.08919993 -8.92966942 26.51314047 -9.25 18.625 C-9.16150492 11.96574559 -6.53432241 6.82685934 -2 2 C-1.34 2 -0.68 2 0 2 C0 1.34 0 0.68 0 0 Z " fill="#000002" transform="translate(940,838)"/>
<path d="M0 0 C2.31 0 4.62 0 7 0 C7 5.61 7 11.22 7 17 C4.69 17 2.38 17 0 17 C0 11.39 0 5.78 0 0 Z " fill="#486FE4" transform="translate(443,756)"/>
<path d="M0 0 C5.69273672 7.1159209 7.54458929 12.10504161 7 21 C4.69 21 2.38 21 0 21 C0 14.07 0 7.14 0 0 Z " fill="#486FE4" transform="translate(443,806)"/>
<path d="M0 0 C5.60494419 -0.14855102 11.20873798 -0.25731076 16.81518555 -0.32958984 C18.72131311 -0.35972497 20.62730242 -0.40064197 22.53295898 -0.45263672 C25.27622587 -0.52559975 28.01765718 -0.55948758 30.76171875 -0.5859375 C31.61086349 -0.61690521 32.46000824 -0.64787292 33.33488464 -0.67977905 C37.78838763 -0.68230046 39.48404102 -0.42004353 43.046875 2.48046875 C45.73757478 6.41410456 45.63745886 10.27256339 45.48828125 14.8984375 C45.48120651 15.73339752 45.47413177 16.56835754 45.46684265 17.42861938 C45.43899925 20.07834973 45.37628406 22.72591559 45.3125 25.375 C45.28740393 27.17835475 45.26459305 28.98174285 45.24414062 30.78515625 C45.18920611 35.19092983 45.10300712 39.59509879 45 44 C44.34 44 43.68 44 43 44 C43.01047363 43.06728271 43.02094727 42.13456543 43.03173828 41.17358398 C43.06598623 37.68657927 43.09097934 34.19975542 43.10986328 30.71264648 C43.11987124 29.20838587 43.1334818 27.70414447 43.15087891 26.19995117 C43.17535809 24.02778357 43.18653523 21.85587496 43.1953125 19.68359375 C43.20578613 18.37962646 43.21625977 17.07565918 43.22705078 15.73217773 C42.82370815 8.66729943 42.82370815 8.66729943 38.89770508 3.09448242 C35.13321671 1.6726102 31.60868629 1.5216044 27.63671875 1.48828125 C26.84473587 1.47033005 26.05275299 1.45237885 25.23677063 1.43388367 C22.72040038 1.37993162 20.20421815 1.34593437 17.6875 1.3125 C15.97588538 1.27931349 14.26429552 1.24482259 12.55273438 1.20898438 C8.36862558 1.12421418 4.18457107 1.05733157 0 1 C0 0.67 0 0.34 0 0 Z " fill="#000002" transform="translate(443,865)"/>
<path d="M0 0 C0.66 0 1.32 0 2 0 C2.24234375 0.76183594 2.4846875 1.52367187 2.734375 2.30859375 C3.23710938 3.85740234 3.23710938 3.85740234 3.75 5.4375 C4.07484375 6.44683594 4.3996875 7.45617187 4.734375 8.49609375 C5.96254459 11.896304 7.37858158 15.13289008 8.8671875 18.42358398 C11.09647361 23.49376854 13.08911201 28.66236792 15.125 33.8125 C16.00097926 36.02798691 16.87851865 38.24285776 17.7578125 40.45703125 C18.1408252 41.42616455 18.52383789 42.39529785 18.91845703 43.39379883 C19.93635424 45.9599821 19.93635424 45.9599821 21.14013672 48.15893555 C22 50 22 50 22 53 C21.34 53 20.68 53 20 53 C19.79246094 52.30777344 19.58492187 51.61554687 19.37109375 50.90234375 C17.2620361 44.20454143 14.6755469 37.96402504 11.64501953 31.65136719 C9.20422996 26.53421586 7.11188686 21.33419782 5.1328125 16.01953125 C3.74349973 12.3162941 2.23152282 8.66947327 0.69921875 5.0234375 C0 3 0 3 0 0 Z " fill="#000002" transform="translate(730,856)"/>
<path d="M0 0 C0.33 0 0.66 0 1 0 C1.01981934 0.8470752 1.03963867 1.69415039 1.06005859 2.56689453 C1.13849595 5.73169002 1.22520049 8.8961242 1.31738281 12.06054688 C1.35549202 13.42601921 1.39037536 14.79158577 1.421875 16.15722656 C1.46791878 18.12847607 1.52681049 20.09941204 1.5859375 22.0703125 C1.6173584 23.25383301 1.6487793 24.43735352 1.68115234 25.65673828 C2.01427739 29.14970488 2.48425193 31.82872139 4 35 C8.04933154 37.59860714 12.68618368 37.34312945 17.36328125 37.4140625 C18.15526413 37.43342865 18.94724701 37.4527948 19.76322937 37.4727478 C22.27954519 37.53227232 24.79590744 37.57881958 27.3125 37.625 C29.0241079 37.66320481 30.73569709 37.70225799 32.44726562 37.7421875 C36.63135749 37.8379513 40.81553931 37.9220818 45 38 C45 38.33 45 38.66 45 39 C39.37665694 39.0741916 33.7535992 39.12862179 28.12988281 39.16479492 C26.21707191 39.17987558 24.30429554 39.2003431 22.39160156 39.22631836 C19.6411893 39.26273347 16.89123446 39.27973349 14.140625 39.29296875 C13.28631897 39.30845261 12.43201294 39.32393646 11.55181885 39.33988953 C5.64389817 39.34156179 5.64389817 39.34156179 2.49121094 37.66918945 C-0.67617707 34.1237684 -0.1302913 29.95457048 -0.09765625 25.48828125 C-0.0962413 24.76005661 -0.09482635 24.03183197 -0.09336853 23.28153992 C-0.08777659 20.95848461 -0.07522562 18.63552612 -0.0625 16.3125 C-0.05748396 14.73632952 -0.05292123 13.16015752 -0.04882812 11.58398438 C-0.0378098 7.72261902 -0.02055074 3.86132592 0 0 Z " fill="#000002" transform="translate(426,836)"/>
<path d="M0 0 C4.29 0 8.58 0 13 0 C13 8.91 13 17.82 13 27 C12.67 27 12.34 27 12 27 C11.98018066 26.34402832 11.96036133 25.68805664 11.93994141 25.01220703 C11.84487493 22.04938931 11.73512248 19.08729468 11.625 16.125 C11.5940625 15.09246094 11.563125 14.05992187 11.53125 12.99609375 C11.49257813 12.00996094 11.45390625 11.02382813 11.4140625 10.0078125 C11.3826416 9.09660645 11.3512207 8.18540039 11.31884766 7.24658203 C11.20117489 4.80068814 11.20117489 4.80068814 9 3 C6.5 2.66666667 6.5 2.66666667 4 3 C1.47871644 5.52128356 1.70646931 6.51239013 1.5859375 10.0078125 C1.54726563 10.99394531 1.50859375 11.98007812 1.46875 12.99609375 C1.4378125 14.02863281 1.406875 15.06117188 1.375 16.125 C1.33632813 17.16527344 1.29765625 18.20554687 1.2578125 19.27734375 C1.16335234 21.85138311 1.07778786 24.42541155 1 27 C0.67 27 0.34 27 0 27 C0 18.09 0 9.18 0 0 Z " fill="#000002" transform="translate(426,882)"/>
<path d="M0 0 C0.33 0 0.66 0 1 0 C1.02578125 1.18078125 1.0515625 2.3615625 1.078125 3.578125 C1.13441397 5.13545323 1.19176114 6.69274347 1.25 8.25 C1.26417969 9.02730469 1.27835937 9.80460938 1.29296875 10.60546875 C1.49349071 15.46616491 1.49349071 15.46616491 4.046875 19.546875 C5.01367188 20.26617188 5.01367188 20.26617188 6 21 C8.0162233 20.28436734 8.0162233 20.28436734 10 19 C11.39113613 15.26589777 11.3351796 11.19270461 11.5625 7.25 C11.60568359 6.55261719 11.64886719 5.85523438 11.69335938 5.13671875 C11.79889596 3.42468078 11.8998991 1.71236439 12 0 C12.33 0 12.66 0 13 0 C13.02887512 3.64581687 13.04675585 7.29160463 13.0625 10.9375 C13.07087891 11.97841797 13.07925781 13.01933594 13.08789062 14.09179688 C13.09111328 15.08115234 13.09433594 16.07050781 13.09765625 17.08984375 C13.10289307 18.00628662 13.10812988 18.92272949 13.11352539 19.86694336 C13 22 13 22 12 23 C7.99779347 23.14355117 4.00558317 23.04216403 0 23 C0 15.41 0 7.82 0 0 Z " fill="#000002" transform="translate(475,836)"/>
<path d="M0 0 C5.44429437 1.31982894 9.01928638 5.44732502 12 10 C12 11.32 12 12.64 12 14 C12.66 14 13.32 14 14 14 C14 16.64 14 19.28 14 22 C9.71 22 5.42 22 1 22 C0.01 19.03 -0.98 16.06 -2 13 C1 16 1 16 2.875 18.25 C4.89833799 20.33410573 4.89833799 20.33410573 7.75 19.75 C8.4925 19.5025 9.235 19.255 10 19 C10.76170685 16.74494682 11.10826447 15.39325478 10.46875 13.0703125 C8.12850295 8.37094545 5.55336318 5.33841237 1.390625 2.12890625 C0.93171875 1.75636719 0.4728125 1.38382813 0 1 C0 0.67 0 0.34 0 0 Z " fill="#000002" transform="translate(343,837)"/>
<path d="M0 0 C1.98 0.495 1.98 0.495 4 1 C4 6.28 4 11.56 4 17 C2.68 16.67 1.36 16.34 0 16 C-1.36538938 13.26922124 -1.13231826 11.04439633 -1.125 8 C-1.12757813 6.9275 -1.13015625 5.855 -1.1328125 4.75 C-1 2 -1 2 0 0 Z " fill="#4756F6" transform="translate(375,837)"/>
<path d="M0 0 C1.32 0 2.64 0 4 0 C4 5.61 4 11.22 4 17 C2.68 17 1.36 17 0 17 C0 11.39 0 5.78 0 0 Z " fill="#467DDA" transform="translate(542,756)"/>
<path d="M0 0 C0.66 0 1.32 0 2 0 C4.37590142 3.70416126 4.20500286 6.92984573 4.125 11.25 C4.10695313 12.51328125 4.08890625 13.7765625 4.0703125 15.078125 C4.04710937 16.04234375 4.02390625 17.0065625 4 18 C-0.29 18 -4.58 18 -9 18 C-9 15.69 -9 13.38 -9 11 C-8.2265625 11.99 -8.2265625 11.99 -7.4375 13 C-4.20004245 15.65637543 -2.07447719 15.31342132 2 15 C2.29514183 8.70861215 2.29514183 8.70861215 0 3 C0 2.01 0 1.02 0 0 Z " fill="#000002" transform="translate(861,837)"/>
<path d="M0 0 C0.33 0 0.66 0 1 0 C1.06058594 0.63808594 1.12117187 1.27617188 1.18359375 1.93359375 C1.26738281 2.75988281 1.35117187 3.58617187 1.4375 4.4375 C1.55931641 5.67306641 1.55931641 5.67306641 1.68359375 6.93359375 C1.78930815 8.98662025 1.78930815 8.98662025 3 10 C5.87306228 10.50095023 5.87306228 10.50095023 9 10 C11.40406384 7.62157423 11.40406384 7.62157423 13 5 C13 7.64 13 10.28 13 13 C10.85423363 13.02685938 8.70837355 13.04633088 6.5625 13.0625 C5.36753906 13.07410156 4.17257812 13.08570313 2.94140625 13.09765625 C0 13 0 13 -1 12 C-1.09851171 10.16884117 -1.12972629 8.33380067 -1.125 6.5 C-1.12757813 5.4996875 -1.13015625 4.499375 -1.1328125 3.46875 C-1 1 -1 1 0 0 Z " fill="#000002" transform="translate(804,842)"/>
<path d="M0 0 C11.22 0 22.44 0 34 0 C34 2.97 34 5.94 34 9 C33.34 9 32.68 9 32 9 C31.71125 8.030625 31.4225 7.06125 31.125 6.0625 C30.35785318 2.89335797 30.35785318 2.89335797 28 2 C25.89625004 1.84558791 23.78804881 1.75007361 21.6796875 1.68359375 C20.42285156 1.64169922 19.16601562 1.59980469 17.87109375 1.55664062 C16.55238281 1.51732422 15.23367188 1.47800781 13.875 1.4375 C12.53514249 1.39430488 11.19529844 1.35069027 9.85546875 1.30664062 C6.57042185 1.20029019 3.28529719 1.09826192 0 1 C0 0.67 0 0.34 0 0 Z " fill="#000002" transform="translate(323,900)"/>
<path d="M0 0 C2.64 0 5.28 0 8 0 C8 12.87 8 25.74 8 39 C7.67 39 7.34 39 7 39 C6.98541748 38.0212793 6.97083496 37.04255859 6.95581055 36.03417969 C6.89774894 32.39595374 6.8205174 28.75834164 6.73754883 25.12060547 C6.70433628 23.54746478 6.67629283 21.97420599 6.65356445 20.40087891 C6.61994972 18.13653328 6.56763376 15.87326635 6.51171875 13.609375 C6.50532883 12.90818542 6.4989389 12.20699585 6.49235535 11.48455811 C6.36941879 7.38308698 5.94273845 4.93188925 3 2 C2.01 1.34 1.02 0.68 0 0 Z " fill="#000002" transform="translate(301,852)"/>
<path d="M0 0 C11.55 0 23.1 0 35 0 C35 0.33 35 0.66 35 1 C19.16 1.495 19.16 1.495 3 2 C2.34 4.31 1.68 6.62 1 9 C0.67 9 0.34 9 0 9 C0 6.03 0 3.06 0 0 Z " fill="#000002" transform="translate(931,900)"/>
<path d="M0 0 C2.475 0.495 2.475 0.495 5 1 C5 6.61 5 12.22 5 18 C4.01 18 3.02 18 2 18 C2 12.39 2 6.78 2 1 C1.34 0.67 0.68 0.34 0 0 Z " fill="#42D796" transform="translate(809,723)"/>
<path d="M0 0 C9.625 -0.25 9.625 -0.25 13 2 C10.02148438 2.34179688 10.02148438 2.34179688 7.04296875 2.68359375 C4.80603607 2.97170735 4.80603607 2.97170735 2 4 C3.30155006 8.07964281 3.30155006 8.07964281 5 12 C3.35 11.67 1.7 11.34 0 11 C0 7.37 0 3.74 0 0 Z " fill="#000002" transform="translate(967,867)"/>
<path d="M0 0 C9.57 0 19.14 0 29 0 C29 2.97 29 5.94 29 9 C28 7 27 5 26 3 C23.01632274 2.00544091 20.7995808 1.80440368 17.67578125 1.68359375 C16.64775391 1.64169922 15.61972656 1.59980469 14.56054688 1.55664062 C12.95276367 1.49766602 12.95276367 1.49766602 11.3125 1.4375 C10.22904297 1.39431641 9.14558594 1.35113281 8.02929688 1.30664062 C5.35299209 1.20053162 2.67659474 1.09847639 0 1 C0 0.67 0 0.34 0 0 Z " fill="#000002" transform="translate(586,900)"/>
<path d="M0 0 C0.99 0 1.98 0 3 0 C2.48594831 4.96916636 1.76615118 9.29026351 0 14 C-0.33 14 -0.66 14 -1 14 C-1.02694851 12.04174127 -1.04637218 10.08337774 -1.0625 8.125 C-1.07410156 7.03445313 -1.08570313 5.94390625 -1.09765625 4.8203125 C-1 2 -1 2 0 0 Z " fill="#486FE4" transform="translate(601,400)"/>
<path d="M0 0 C12.21 0 24.42 0 37 0 C37 0.33 37 0.66 37 1 C24.79 1 12.58 1 0 1 C0 0.67 0 0.34 0 0 Z " fill="#1C2026" transform="translate(376,835)"/>
<path d="M0 0 C5.27749285 0.53851968 9.25645564 1.77343836 14 4 C10.44757118 5.18414294 9.30169438 4.69535532 5.8125 3.5625 C4.91144531 3.27503906 4.01039063 2.98757813 3.08203125 2.69140625 C2.39496094 2.46324219 1.70789063 2.23507812 1 2 C0.71125 2.78375 0.4225 3.5675 0.125 4.375 C-1 7 -1 7 -3 9 C-2.44271087 5.65626525 -1.64826111 2.96687001 0 0 Z " fill="#000002" transform="translate(693,875)"/>
<path d="M0 0 C10.89 0 21.78 0 33 0 C33 0.33 33 0.66 33 1 C22.11 1 11.22 1 0 1 C0 0.67 0 0.34 0 0 Z " fill="#3F5458" transform="translate(497,835)"/>
<path d="M0 0 C7.26 0 14.52 0 22 0 C22 0.33 22 0.66 22 1 C14.74 1 7.48 1 0 1 C0 0.67 0 0.34 0 0 Z " fill="#3F5458" transform="translate(732,835)"/>
<path d="M0 0 C2 1 2 1 2 1 Z " fill="#43E38E" transform="translate(870,835)"/>
<path d="" fill="#46CAA0" transform="translate(0,0)"/>
<path d="" fill="#06060E" transform="translate(0,0)"/>
<path d="" fill="#06060E" transform="translate(0,0)"/>
<path d="" fill="#06060E" transform="translate(0,0)"/>
<path d="" fill="#4753F9" transform="translate(0,0)"/>
<path d="" fill="#06060E" transform="translate(0,0)"/>
<path d="" fill="#4861EE" transform="translate(0,0)"/>
<path d="" fill="#486FE4" transform="translate(0,0)"/>
</svg>
